<svg width="265" height="115" viewBox="0 0 265 115" fill="none" xmlns="http://www.w3.org/2000/svg">
<g filter="url(#filter0_f_3_60)">
<ellipse rx="117.62" ry="42.2599" transform="matrix(0.989826 -0.142281 -0.263632 0.964623 127.565 57.5)" fill="#4361EE"/>
<path d="M242.008 41.0495C240.684 45.8946 236.554 51.1697 229.622 56.6615C222.701 62.1453 213.243 67.6311 201.837 72.7723C179.044 83.0464 148.934 91.7384 116.951 96.3357C84.9678 100.933 57.3403 100.54 38.5284 96.2468C29.1148 94.0983 22.0044 90.9941 17.6371 87.1329C13.2635 83.2661 11.7966 78.7957 13.1207 73.9505C14.4449 69.1054 18.5753 63.8304 25.5066 58.3385C32.4279 52.8547 41.8859 47.369 53.2918 42.2277C76.0851 31.9536 106.195 23.2616 138.178 18.6643C170.161 14.067 197.789 14.4595 216.601 18.7532C226.014 20.9018 233.125 24.0059 237.492 27.8671C241.866 31.7339 243.332 36.2044 242.008 41.0495Z" stroke="#ECF8F8" stroke-width="4"/>
</g>
<path d="M28.1132 66.2038L27.5598 70.4231H7.35479L11.3994 38.2765H31.6044L31.0736 42.4957H16.1561L14.9371 52.1844H26.8621L26.3481 56.2696H14.4231L13.1732 66.2038H28.1132ZM45.722 60.4666C43.9895 60.5261 42.5167 60.6675 41.3036 60.8907C40.0924 61.0991 39.0977 61.3744 38.3197 61.7167C37.5435 62.0441 36.9613 62.4385 36.5733 62.8999C36.2003 63.3612 35.9791 63.8672 35.9098 64.4179C35.8424 64.9537 35.8668 65.415 35.9832 65.802C36.1163 66.1741 36.317 66.4866 36.5852 66.7396C36.8702 66.9777 37.2078 67.1563 37.5978 67.2754C38.0047 67.3796 38.4556 67.4316 38.9506 67.4316C40.2106 67.4316 41.3196 67.201 42.2777 66.7396C43.2526 66.2634 44.2237 65.5788 45.1911 64.6858L45.722 60.4666ZM34.1103 50.8226C37.0068 48.4265 40.2476 47.2284 43.8326 47.2284C45.1526 47.2284 46.2954 47.4442 47.2611 47.8758C48.2437 48.2925 49.0313 48.8878 49.6239 49.6617C50.2315 50.4356 50.6479 51.3584 50.8731 52.4299C51.1152 53.4866 51.1547 54.6623 50.9918 55.9571L49.1717 70.4231H47.0117C46.5467 70.4231 46.2027 70.3561 45.9795 70.2221C45.7582 70.0733 45.5923 69.7831 45.4816 69.3515L45.2422 67.4986C44.5917 68.0195 43.9552 68.4883 43.3327 68.905C42.7122 69.3069 42.0766 69.6492 41.426 69.9319C40.7905 70.2147 40.1117 70.4231 39.3899 70.557C38.6812 70.7058 37.9068 70.7802 37.0668 70.7802C36.1368 70.7802 35.2827 70.6537 34.5046 70.4007C33.7414 70.1477 33.0991 69.7682 32.5778 69.2622C32.0583 68.7413 31.6739 68.1014 31.4244 67.3423C31.1899 66.5833 31.1372 65.6904 31.2664 64.6635C31.3769 63.7854 31.7171 62.9296 32.2869 62.0962C32.8718 61.2628 33.7454 60.5186 34.9078 59.8638C36.0871 59.1941 37.5888 58.6434 39.4131 58.2118C41.2524 57.7802 43.4808 57.5347 46.0983 57.4751L46.2893 55.9571C46.4953 54.32 46.2964 53.0996 45.6925 52.296C45.0886 51.4923 44.1041 51.0905 42.7391 51.0905C41.8091 51.0905 41.0142 51.2095 40.3542 51.4477C39.6961 51.6709 39.1177 51.9165 38.619 52.1844C38.1203 52.4522 37.676 52.7052 37.286 52.9434C36.8979 53.1666 36.5014 53.2782 36.0964 53.2782C35.7664 53.2782 35.4917 53.1964 35.2723 53.0327C35.0697 52.8541 34.9094 52.6383 34.7912 52.3853L34.1103 50.8226ZM70.8864 51.7825C70.7402 51.9909 70.5865 52.1397 70.4252 52.229C70.264 52.3183 70.0709 52.3629 69.8459 52.3629C69.5909 52.3629 69.3227 52.2885 69.0415 52.1397C68.7621 51.976 68.432 51.7974 68.0514 51.6039C67.6707 51.4105 67.2123 51.2393 66.676 51.0905C66.1566 50.9268 65.5294 50.8449 64.7944 50.8449C64.1944 50.8449 63.6375 50.9193 63.1238 51.0682C62.6269 51.2021 62.1892 51.403 61.8104 51.6709C61.4486 51.9239 61.1552 52.229 60.9303 52.5862C60.7072 52.9285 60.5704 53.3006 60.5199 53.7024C60.4524 54.2382 60.5613 54.6846 60.8463 55.0418C61.1314 55.399 61.5271 55.7115 62.0334 55.9794C62.5415 56.2324 63.1275 56.4631 63.7913 56.6715C64.4551 56.8798 65.132 57.1031 65.822 57.3412C66.5121 57.5793 67.1824 57.8546 67.8331 58.1672C68.4838 58.4797 69.0501 58.8667 69.532 59.328C70.0159 59.7745 70.3816 60.3252 70.6292 60.98C70.8787 61.62 70.9454 62.4013 70.8293 63.324C70.6945 64.3956 70.3749 65.3853 69.8707 66.2931C69.3665 67.201 68.6972 67.9897 67.863 68.6595C67.0287 69.3292 66.0257 69.8501 64.8539 70.2221C63.697 70.5942 62.3986 70.7802 60.9586 70.7802C60.1636 70.7802 59.4005 70.7058 58.6692 70.557C57.9511 70.4231 57.2695 70.237 56.6244 69.9989C55.9963 69.7459 55.4112 69.4482 54.8693 69.1059C54.3424 68.7636 53.8792 68.3916 53.4797 67.9897L54.8351 66.1592C54.9981 65.9359 55.1847 65.7648 55.3947 65.6457C55.6215 65.5118 55.8849 65.4448 56.1849 65.4448C56.4999 65.4448 56.7943 65.549 57.0681 65.7573C57.3588 65.9508 57.6916 66.1666 58.0667 66.4047C58.4567 66.6429 58.9311 66.8661 59.4899 67.0745C60.0506 67.2679 60.7659 67.3647 61.6359 67.3647C62.3559 67.3647 62.9887 67.2828 63.5343 67.1191C64.0817 66.9405 64.5467 66.7024 64.9292 66.4047C65.3116 66.1071 65.6087 65.7722 65.8206 65.4002C66.0342 65.0132 66.1682 64.6039 66.2225 64.1723C66.2956 63.5919 66.1905 63.1157 65.9073 62.7436C65.6241 62.3715 65.2219 62.0516 64.7006 61.7837C64.1943 61.5158 63.6017 61.2777 62.923 61.0693C62.2592 60.8609 61.5823 60.6377 60.8922 60.3996C60.2022 60.1615 59.5243 59.8861 58.8586 59.5736C58.208 59.2611 57.6351 58.8667 57.14 58.3904C56.6618 57.8993 56.3008 57.3114 56.0569 56.6268C55.8149 55.9273 55.7566 55.079 55.8821 54.0819C55.9963 53.174 56.2849 52.3109 56.7479 51.4923C57.2259 50.6738 57.8567 49.952 58.6404 49.3269C59.439 48.7018 60.3783 48.2107 61.4582 47.8535C62.5551 47.4814 63.786 47.2954 65.151 47.2954C66.696 47.2954 68.0676 47.541 69.2658 48.0321C70.464 48.5232 71.4372 49.1929 72.1855 50.0412L70.8864 51.7825ZM97.2701 47.6526L80.9456 76.897C80.7376 77.2393 80.5014 77.5072 80.237 77.7007C79.9877 77.8942 79.623 77.9909 79.143 77.9909H75.5655L80.9415 68.8827L74.2526 47.6526H78.4601C78.8651 47.6526 79.1605 47.7493 79.3461 47.9428C79.5486 48.1214 79.6865 48.3372 79.7597 48.5902L83.6009 61.5158C83.6891 61.8879 83.7623 62.2599 83.8204 62.632C83.8955 62.9892 83.9612 63.3612 84.0175 63.7482C84.1862 63.3612 84.3539 62.9817 84.5208 62.6097C84.6876 62.2376 84.8694 61.8655 85.0662 61.4935L91.9322 48.5902C92.0709 48.3223 92.2715 48.0991 92.5339 47.9205C92.8114 47.7419 93.1001 47.6526 93.4001 47.6526H97.2701ZM117.362 42.4957L116.067 52.7871H128.735L128.204 57.0063H115.536L113.848 70.4231H108.561L112.605 38.2765H132.81L132.28 42.4957H117.362ZM140.922 47.6526L138.057 70.4231H133.22L136.085 47.6526H140.922ZM142.597 40.7768C142.543 41.2084 142.402 41.6177 142.173 42.0046C141.959 42.3916 141.684 42.7339 141.346 43.0315C141.011 43.3143 140.629 43.545 140.202 43.7236C139.791 43.8873 139.361 43.9691 138.911 43.9691C138.476 43.9691 138.073 43.8873 137.704 43.7236C137.352 43.545 137.051 43.3143 136.801 43.0315C136.554 42.7339 136.364 42.3916 136.233 42.0046C136.117 41.6177 136.086 41.2084 136.14 40.7768C136.196 40.3303 136.331 39.9136 136.545 39.5266C136.773 39.1397 137.048 38.8048 137.369 38.5221C137.691 38.2244 138.05 37.9937 138.446 37.83C138.858 37.6514 139.282 37.5621 139.717 37.5621C140.167 37.5621 140.576 37.6514 140.943 37.83C141.328 37.9937 141.651 38.2244 141.914 38.5221C142.178 38.8048 142.368 39.1397 142.485 39.5266C142.616 39.9136 142.654 40.3303 142.597 40.7768ZM151.144 50.6663C151.702 50.1603 152.269 49.7064 152.845 49.3046C153.437 48.8878 154.052 48.5307 154.69 48.233C155.327 47.9354 155.994 47.7047 156.689 47.541C157.385 47.3773 158.13 47.2954 158.925 47.2954C160.185 47.2954 161.262 47.5038 162.154 47.9205C163.062 48.3372 163.79 48.925 164.34 49.6841C164.904 50.4431 165.284 51.3584 165.479 52.4299C165.676 53.4866 165.694 54.6549 165.533 55.9348L163.71 70.4231H158.895L160.718 55.9348C160.911 54.4019 160.701 53.2113 160.088 52.3629C159.489 51.5146 158.463 51.0905 157.008 51.0905C155.928 51.0905 154.892 51.336 153.9 51.8272C152.923 52.3183 151.977 52.988 151.06 53.8363L148.973 70.4231H144.135L147 47.6526H149.925C150.585 47.6526 150.967 47.9577 151.07 48.5679L151.144 50.6663ZM182.875 60.4666C181.143 60.5261 179.67 60.6675 178.457 60.8907C177.246 61.0991 176.251 61.3744 175.473 61.7167C174.697 62.0441 174.115 62.4385 173.727 62.8999C173.354 63.3612 173.132 63.8672 173.063 64.4179C172.996 64.9537 173.02 65.415 173.136 65.802C173.27 66.1741 173.47 66.4866 173.739 66.7396C174.024 66.9777 174.361 67.1563 174.751 67.2754C175.158 67.3796 175.609 67.4316 176.104 67.4316C177.364 67.4316 178.473 67.201 179.431 66.7396C180.406 66.2634 181.377 65.5788 182.344 64.6858L182.875 60.4666ZM171.264 50.8226C174.16 48.4265 177.401 47.2284 180.986 47.2284C182.306 47.2284 183.449 47.4442 184.414 47.8758C185.397 48.2925 186.185 48.8878 186.777 49.6617C187.385 50.4356 187.801 51.3584 188.026 52.4299C188.268 53.4866 188.308 54.6623 188.145 55.9571L186.325 70.4231H184.165C183.7 70.4231 183.356 70.3561 183.133 70.2221C182.912 70.0733 182.746 69.7831 182.635 69.3515L182.396 67.4986C181.745 68.0195 181.108 68.4883 180.486 68.905C179.866 69.3069 179.23 69.6492 178.579 69.9319C177.944 70.2147 177.265 70.4231 176.543 70.557C175.834 70.7058 175.06 70.7802 174.22 70.7802C173.29 70.7802 172.436 70.6537 171.658 70.4007C170.895 70.1477 170.252 69.7682 169.731 69.2622C169.212 68.7413 168.827 68.1014 168.578 67.3423C168.343 66.5833 168.291 65.6904 168.42 64.6635C168.53 63.7854 168.87 62.9296 169.44 62.0962C170.025 61.2628 170.899 60.5186 172.061 59.8638C173.24 59.1941 174.742 58.6434 176.566 58.2118C178.406 57.7802 180.634 57.5347 183.252 57.4751L183.443 55.9571C183.649 54.32 183.45 53.0996 182.846 52.296C182.242 51.4923 181.257 51.0905 179.892 51.0905C178.962 51.0905 178.167 51.2095 177.508 51.4477C176.849 51.6709 176.271 51.9165 175.772 52.1844C175.274 52.4522 174.829 52.7052 174.439 52.9434C174.051 53.1666 173.655 53.2782 173.25 53.2782C172.92 53.2782 172.645 53.1964 172.426 53.0327C172.223 52.8541 172.063 52.6383 171.945 52.3853L171.264 50.8226ZM199 50.6663C199.559 50.1603 200.126 49.7064 200.701 49.3046C201.294 48.8878 201.909 48.5307 202.546 48.233C203.184 47.9354 203.85 47.7047 204.546 47.541C205.241 47.3773 205.987 47.2954 206.782 47.2954C208.042 47.2954 209.118 47.5038 210.011 47.9205C210.918 48.3372 211.647 48.925 212.196 49.6841C212.761 50.4431 213.141 51.3584 213.336 52.4299C213.533 53.4866 213.551 54.6549 213.39 55.9348L211.567 70.4231H206.752L208.575 55.9348C208.768 54.4019 208.557 53.2113 207.944 52.3629C207.346 51.5146 206.319 51.0905 204.864 51.0905C203.784 51.0905 202.748 51.336 201.757 51.8272C200.78 52.3183 199.833 52.988 198.916 53.8363L196.829 70.4231H191.992L194.857 47.6526H197.782C198.442 47.6526 198.823 47.9577 198.927 48.5679L199 50.6663ZM235.742 52.1174C235.568 52.3109 235.407 52.4597 235.259 52.5639C235.11 52.668 234.909 52.7201 234.654 52.7201C234.399 52.7201 234.14 52.6308 233.878 52.4522C233.63 52.2736 233.324 52.0802 232.961 51.8718C232.614 51.6486 232.181 51.4477 231.664 51.2691C231.146 51.0905 230.483 51.0012 229.673 51.0012C228.623 51.0012 227.677 51.1872 226.835 51.5593C226.008 51.9313 225.281 52.4671 224.653 53.1666C224.042 53.8512 223.538 54.6921 223.143 55.6892C222.764 56.6715 222.497 57.7802 222.342 59.0155C222.181 60.2954 222.18 61.4339 222.34 62.4311C222.499 63.4282 222.798 64.2691 223.237 64.9537C223.691 65.6383 224.27 66.1592 224.976 66.5164C225.696 66.8735 226.528 67.0521 227.473 67.0521C228.403 67.0521 229.175 66.9405 229.788 66.7173C230.401 66.494 230.919 66.2485 231.343 65.9806C231.767 65.7127 232.128 65.4671 232.426 65.2439C232.739 65.0207 233.053 64.909 233.368 64.909C233.758 64.909 234.039 65.0579 234.212 65.3555L235.362 67.1191C234.723 67.7888 234.037 68.3544 233.304 68.8157C232.571 69.2771 231.81 69.6566 231.023 69.9543C230.237 70.237 229.432 70.4379 228.607 70.557C227.78 70.6909 226.954 70.7579 226.129 70.7579C224.704 70.7579 223.402 70.4975 222.223 69.9766C221.06 69.4408 220.077 68.6743 219.272 67.6772C218.484 66.6652 217.911 65.4374 217.553 63.9937C217.211 62.5352 217.158 60.8758 217.392 59.0155C217.603 57.3338 218.039 55.7785 218.699 54.3498C219.36 52.9062 220.214 51.6635 221.26 50.6217C222.321 49.5799 223.571 48.7688 225.009 48.1884C226.449 47.5931 228.061 47.2954 229.846 47.2954C231.511 47.2954 232.94 47.5633 234.133 48.0991C235.34 48.6348 236.377 49.3939 237.244 50.3761L235.742 52.1174ZM255.25 56.4706C255.351 55.6669 255.325 54.9228 255.171 54.2382C255.034 53.5387 254.772 52.9359 254.386 52.4299C254.002 51.909 253.49 51.5072 252.85 51.2244C252.228 50.9268 251.481 50.7779 250.611 50.7779C248.856 50.7779 247.414 51.2765 246.283 52.2736C245.153 53.2708 244.339 54.6698 243.843 56.4706H255.25ZM243.337 59.4173C243.234 60.7121 243.295 61.8358 243.52 62.7883C243.747 63.7259 244.106 64.5072 244.598 65.1323C245.104 65.7573 245.735 66.2261 246.491 66.5387C247.263 66.8363 248.145 66.9852 249.135 66.9852C250.08 66.9852 250.91 66.881 251.626 66.6726C252.345 66.4494 252.975 66.2113 253.516 65.9583C254.06 65.6904 254.525 65.4522 254.911 65.2439C255.299 65.0207 255.643 64.909 255.943 64.909C256.333 64.909 256.615 65.0579 256.787 65.3555L257.938 67.1191C257.284 67.7888 256.567 68.3544 255.789 68.8157C255.011 69.2771 254.199 69.6566 253.351 69.9543C252.506 70.237 251.648 70.4379 250.778 70.557C249.906 70.6909 249.065 70.7579 248.255 70.7579C246.665 70.7579 245.22 70.4975 243.921 69.9766C242.638 69.4408 241.559 68.6595 240.683 67.6326C239.822 66.6057 239.202 65.3332 238.823 63.8152C238.459 62.2971 238.402 60.5484 238.651 58.569C238.85 56.9915 239.282 55.5181 239.95 54.1489C240.632 52.7797 241.502 51.589 242.559 50.577C243.631 49.565 244.872 48.7688 246.28 48.1884C247.705 47.5931 249.264 47.2954 250.959 47.2954C252.369 47.2954 253.645 47.5261 254.787 47.9874C255.931 48.4339 256.883 49.0962 257.642 49.9743C258.402 50.8524 258.941 51.9313 259.26 53.2113C259.596 54.4763 259.662 55.9199 259.458 57.5421C259.364 58.2862 259.219 58.7848 259.022 59.0378C258.825 59.2908 258.509 59.4173 258.074 59.4173H243.337Z" fill="#ECF8F8"/>
<path d="M28.1132 66.2038L29.1125 66.2091L29.2433 65.2116H28.238L28.1132 66.2038ZM27.5598 70.4231L27.435 71.4152H28.4297L28.5591 70.4283L27.5598 70.4231ZM7.35479 70.4231H6.35479L6.22996 71.4152H7.22996L7.35479 70.4231ZM11.3994 38.2765L11.5243 37.2843H10.5243L10.3994 38.2765H11.3994ZM31.6044 38.2765H32.6044L32.7293 37.2843H31.7293L31.6044 38.2765ZM31.0736 42.4957L30.9487 43.4879H31.9487L32.0736 42.4957H31.0736ZM16.1561 42.4957L16.2809 41.5036H15.2809L15.1561 42.4957H16.1561ZM14.9371 52.1844H13.9371L13.8122 53.1765H14.8122L14.9371 52.1844ZM26.8621 52.1844H27.8621L27.9869 51.1922H26.9869L26.8621 52.1844ZM26.3481 56.2696L26.2232 57.2618H27.2232L27.3481 56.2696H26.3481ZM14.4231 56.2696L14.5479 55.2775H13.5479L13.4231 56.2696H14.4231ZM13.1731 66.2038H12.1731L12.0483 67.196H13.0483L13.1731 66.2038ZM27.1138 66.1986L26.5605 70.4178L28.5591 70.4283L29.1125 66.2091L27.1138 66.1986ZM27.6846 69.4309H7.47963L7.22996 71.4152H27.435L27.6846 69.4309ZM8.35479 70.4231L12.3994 38.2765H10.3994L6.35479 70.4231H8.35479ZM11.2746 39.2687H31.4796L31.7293 37.2843H11.5243L11.2746 39.2687ZM30.6044 38.2765L30.0736 42.4957H32.0736L32.6044 38.2765H30.6044ZM31.1984 41.5036H16.2809L16.0312 43.4879H30.9487L31.1984 41.5036ZM15.1561 42.4957L13.9371 52.1844H15.9371L17.1561 42.4957H15.1561ZM14.8122 53.1765H26.7372L26.9869 51.1922H15.0619L14.8122 53.1765ZM25.8621 52.1844L25.3481 56.2696H27.3481L27.8621 52.1844H25.8621ZM26.4729 55.2775H14.5479L14.2982 57.2618H26.2232L26.4729 55.2775ZM13.4231 56.2696L12.1731 66.2038H14.1731L15.4231 56.2696H13.4231ZM13.0483 67.196H27.9883L28.238 65.2116H13.298L13.0483 67.196ZM45.722 60.4666H46.722L46.8512 59.4393L45.812 59.475L45.722 60.4666ZM41.3036 60.8907L41.3552 61.8677L41.3675 61.8655L41.3036 60.8907ZM38.3197 61.7167L38.6154 62.6218L38.6235 62.6184L38.6316 62.6149L38.3197 61.7167ZM36.5733 62.8999L35.83 62.3257L35.8226 62.3345L35.8154 62.3434L36.5733 62.8999ZM35.9832 65.802L35.0136 66.1886L35.02 66.2102L35.0276 66.2313L35.9832 65.802ZM36.5852 66.7396L35.8424 67.4956L35.8606 67.5127L35.8799 67.5288L36.5852 66.7396ZM37.5978 67.2754L37.194 68.2267L37.2139 68.2327L37.2341 68.2379L37.5978 67.2754ZM42.2777 66.7396L42.6258 67.6211L42.6317 67.6182L42.2777 66.7396ZM45.1911 64.6858L45.8301 65.3692L46.1413 65.0819L46.1911 64.6858H45.1911ZM34.1103 50.8226L33.5205 50.0963L32.88 50.6261L33.176 51.3055L34.1103 50.8226ZM47.2611 47.8758L46.754 48.7885L46.7617 48.7919L46.7694 48.7952L47.2611 47.8758ZM49.6239 49.6617L48.7921 50.3192L48.7983 50.327L49.6239 49.6617ZM50.8731 52.4299L49.885 52.7437L49.8866 52.7516L49.8884 52.7594L50.8731 52.4299ZM49.1717 70.4231L49.0469 71.4152H50.0469L50.1717 70.4231H49.1717ZM45.9795 70.2221L45.3437 71.0635L45.3617 71.0757L45.3805 71.0869L45.9795 70.2221ZM45.4816 69.3515L44.4815 69.5949L44.4886 69.6501L44.5023 69.7034L45.4816 69.3515ZM45.2422 67.4986L46.2423 67.2553L46.0366 65.6637L44.6672 66.7602L45.2422 67.4986ZM43.3327 68.905L43.8102 69.7138L43.8178 69.7089L43.8254 69.7038L43.3327 68.905ZM41.426 69.9319L41.1188 69.0317L41.1097 69.0357L41.426 69.9319ZM39.3899 70.557L39.3244 69.5825L39.3119 69.5849L39.2994 69.5875L39.3899 70.557ZM34.5046 70.4007L34.0803 71.3455L34.0852 71.3471L34.5046 70.4007ZM32.5778 69.2622L31.817 70.0006L31.8217 70.0054L31.8266 70.0101L32.5778 69.2622ZM31.4244 67.3423L30.4567 67.7353L30.459 67.7428L30.4614 67.7502L31.4244 67.3423ZM32.2869 62.0962L31.4805 61.6039L31.4725 61.6157L32.2869 62.0962ZM34.9078 59.8638L35.3227 60.7104L35.3263 60.7084L34.9078 59.8638ZM39.4131 58.2118L39.2977 57.2479L39.2957 57.2483L39.4131 58.2118ZM46.0983 57.4751L45.9965 58.4671L46.9763 58.4448L47.0983 57.4751H46.0983ZM45.6925 52.296L44.8562 52.9474L45.6925 52.296ZM40.3542 51.4477L40.573 52.382L40.5833 52.3785L40.5935 52.3748L40.3542 51.4477ZM38.619 52.1844L38.2248 51.3263L38.619 52.1844ZM37.286 52.9434L37.7102 53.7847L37.7236 53.777L37.7368 53.7689L37.286 52.9434ZM35.2723 53.0327L34.5501 53.8074L34.5756 53.8299L34.6029 53.8503L35.2723 53.0327ZM34.7912 52.3853L33.8569 52.8682L33.8613 52.8783L33.866 52.8883L34.7912 52.3853ZM45.812 59.475C44.0481 59.5356 42.5207 59.6802 41.2397 59.916L41.3675 61.8655C42.5127 61.6547 43.9308 61.5166 45.632 61.4581L45.812 59.475ZM41.252 59.9138C39.9905 60.1308 38.9001 60.426 38.0078 60.8185L38.6316 62.6149C39.2954 62.3228 40.1943 62.0674 41.3552 61.8677L41.252 59.9138ZM38.024 60.8116C37.1433 61.183 36.3794 61.6725 35.83 62.3257L37.3166 63.4741C37.5433 63.2045 37.9436 62.9052 38.6154 62.6218L38.024 60.8116ZM35.8154 62.3434C35.3112 62.9669 35.0044 63.6663 34.9098 64.4179H36.9098C36.9538 64.0682 37.0893 63.7555 37.3312 63.4563L35.8154 62.3434ZM34.9098 64.4179C34.8301 65.0514 34.8519 65.6507 35.0136 66.1886L36.9528 65.4154C36.8818 65.1794 36.8547 64.856 36.9098 64.4179H34.9098ZM35.0276 66.2313C35.2031 66.7215 35.4735 67.1475 35.8424 67.4956L37.328 65.9836C37.1606 65.8257 37.0296 65.6266 36.9387 65.3726L35.0276 66.2313ZM35.8799 67.5288C36.2579 67.8446 36.6995 68.0757 37.194 68.2267L38.0016 66.3241C37.7161 66.2369 37.4826 66.1108 37.2905 65.9504L35.8799 67.5288ZM37.2341 68.2379C37.7279 68.3644 38.2605 68.4238 38.8258 68.4238L39.0755 66.4395C38.6508 66.4395 38.2814 66.3948 37.9614 66.3128L37.2341 68.2379ZM38.8258 68.4238C40.2073 68.4238 41.4843 68.1708 42.6258 67.6211L41.9296 65.8581C41.155 66.2311 40.2139 66.4395 39.0755 66.4395L38.8258 68.4238ZM42.6317 67.6182C43.7284 67.0825 44.7941 66.3255 45.8301 65.3692L44.5521 64.0024C43.6534 64.832 42.7768 65.4442 41.9237 65.861L42.6317 67.6182ZM46.1911 64.6858L46.722 60.4666H44.722L44.1911 64.6858H46.1911ZM34.7002 51.5489C37.3876 49.3258 40.3723 48.2206 43.7077 48.2206L43.9574 46.2362C40.1228 46.2362 36.6261 47.5272 33.5205 50.0963L34.7002 51.5489ZM43.7077 48.2206C44.9181 48.2206 45.9258 48.4183 46.754 48.7885L47.7682 46.9632C46.665 46.4701 45.387 46.2362 43.9574 46.2362L43.7077 48.2206ZM46.7694 48.7952C47.6263 49.1586 48.2937 49.6682 48.7922 50.3191L50.4556 49.0043C49.7688 48.1075 48.8611 47.4265 47.7528 46.9565L46.7694 48.7952ZM48.7983 50.327C49.3196 50.991 49.6848 51.7913 49.885 52.7437L51.8613 52.1162C51.611 50.9254 51.1434 49.8803 50.4495 48.9964L48.7983 50.327ZM49.8884 52.7594C50.1028 53.6952 50.1428 54.7574 49.9918 55.9571H51.9918C52.1667 54.5673 52.1276 53.278 51.8578 52.1004L49.8884 52.7594ZM49.9918 55.9571L48.1717 70.4231H50.1717L51.9918 55.9571H49.9918ZM49.2966 69.4309H47.1366L46.8869 71.4152H49.0469L49.2966 69.4309ZM47.1366 69.4309C46.9498 69.4309 46.8125 69.4172 46.7156 69.3984C46.6681 69.3891 46.6341 69.3793 46.6111 69.3712C46.5998 69.3672 46.5916 69.3638 46.5863 69.3613C46.5809 69.3588 46.5786 69.3574 46.5786 69.3574L45.3805 71.0869C45.808 71.3435 46.3543 71.4152 46.8869 71.4152L47.1366 69.4309ZM46.6154 69.3808C46.6346 69.3937 46.6176 69.3898 46.5823 69.3281C46.5467 69.2658 46.5024 69.1618 46.4608 68.9996L44.5023 69.7034C44.6343 70.218 44.8726 70.7467 45.3437 71.0635L46.6154 69.3808ZM46.4816 69.1081L46.2423 67.2553L44.2421 67.742L44.4815 69.5949L46.4816 69.1081ZM44.6672 66.7602C44.0404 67.2621 43.4313 67.7104 42.84 68.1063L43.8254 69.7038C44.479 69.2662 45.1429 68.7769 45.8172 68.237L44.6672 66.7602ZM42.8553 68.0962C42.2874 68.4639 41.7087 68.7753 41.1188 69.0317L41.7332 70.8321C42.4445 70.523 43.1369 70.1498 43.8102 69.7138L42.8553 68.0962ZM41.1097 69.0357C40.5616 69.2796 39.9678 69.4632 39.3244 69.5825L39.4554 71.5315C40.2557 71.383 41.0193 71.1498 41.7423 70.8281L41.1097 69.0357ZM39.2994 69.5875C38.6744 69.7187 37.9732 69.7881 37.1916 69.7881L36.942 71.7724C37.8404 71.7724 38.6879 71.6929 39.4803 71.5265L39.2994 69.5875ZM37.1916 69.7881C36.3539 69.7881 35.6003 69.6743 34.9239 69.4543L34.0852 71.3471C34.9651 71.6332 35.9197 71.7724 36.942 71.7724L37.1916 69.7881ZM34.9289 69.456C34.2805 69.241 33.7522 68.9251 33.329 68.5143L31.8266 70.0101C32.446 70.6113 33.2023 71.0544 34.0803 71.3455L34.9289 69.456ZM33.3386 68.5238C32.9172 68.1012 32.5983 67.5763 32.3873 66.9345L30.4614 67.7502C30.7495 68.6264 31.1995 69.3814 31.817 70.0006L33.3386 68.5238ZM32.392 66.9494C32.2039 66.3406 32.1502 65.587 32.2664 64.6635H30.2664C30.1242 65.7938 30.1758 66.826 30.4567 67.7353L32.392 66.9494ZM32.2664 64.6635C32.354 63.9676 32.6233 63.2759 33.1014 62.5767L31.4725 61.6157C30.8108 62.5834 30.3998 63.6032 30.2664 64.6635H32.2664ZM33.0932 62.5885C33.5495 61.9382 34.2689 61.3041 35.3227 60.7104L34.4929 59.0172C33.2219 59.7332 32.194 60.5873 31.4806 61.6039L33.0932 62.5885ZM35.3263 60.7084C36.3796 60.1102 37.7707 59.5917 39.5306 59.1753L39.2957 57.2483C37.407 57.6952 35.7945 58.2779 34.4893 59.0192L35.3263 60.7084ZM39.5286 59.1758C41.2726 58.7666 43.4237 58.5256 45.9965 58.4671L46.2002 56.4832C43.5379 56.5438 41.2322 56.7939 39.2977 57.2479L39.5286 59.1758ZM47.0983 57.4751L47.2893 55.9571H45.2893L45.0983 57.4751H47.0983ZM47.2893 55.9571C47.5099 54.2038 47.3248 52.7041 46.5287 51.6446L44.8562 52.9474C45.2679 53.4952 45.4807 54.4362 45.2893 55.9571H47.2893ZM46.5287 51.6446C45.7201 50.5685 44.434 50.0983 42.864 50.0983L42.6143 52.0827C43.7743 52.0827 44.4571 52.4162 44.8562 52.9474L46.5287 51.6446ZM42.864 50.0983C41.8553 50.0983 40.9297 50.2265 40.1149 50.5205L40.5935 52.3748C41.0986 52.1926 41.763 52.0827 42.6143 52.0827L42.864 50.0983ZM40.1354 50.5133C39.4311 50.7522 38.7919 51.0217 38.2248 51.3263L39.0132 53.0424C39.4435 52.8112 39.9611 52.5896 40.573 52.382L40.1354 50.5133ZM38.2248 51.3263C37.7113 51.6022 37.2476 51.866 36.8352 52.1178L37.7368 53.7689C38.1044 53.5445 38.5293 53.3023 39.0132 53.0424L38.2248 51.3263ZM36.8619 52.102C36.6365 52.2317 36.4295 52.2861 36.2212 52.2861L35.9715 54.2704C36.5732 54.2704 37.1594 54.1015 37.7102 53.7847L36.8619 52.102ZM36.2212 52.2861C36.0656 52.2861 35.9889 52.2503 35.9417 52.2151L34.6029 53.8503C34.9944 54.1424 35.4671 54.2704 35.9715 54.2704L36.2212 52.2861ZM35.9945 52.2579C35.8798 52.1568 35.7873 52.0339 35.7165 51.8822L33.866 52.8883C34.0315 53.2426 34.2597 53.5513 34.5501 53.8074L35.9945 52.2579ZM35.7256 51.9024L35.0447 50.3397L33.176 51.3055L33.8569 52.8682L35.7256 51.9024ZM70.8864 51.7825L70.1002 51.2625L70.0899 51.2763L70.0801 51.2903L70.8864 51.7825ZM70.4252 52.229L70.0178 51.3782L70.4252 52.229ZM69.0415 52.1397L68.4502 53.0091L68.4662 53.0184L68.4826 53.0271L69.0415 52.1397ZM66.676 51.0905L66.2644 52.0393L66.2794 52.0441L66.2946 52.0483L66.676 51.0905ZM63.1238 51.0682L63.2744 52.0233L63.2844 52.0206L63.2943 52.0177L63.1238 51.0682ZM61.8105 51.6709L62.3231 52.456L62.3284 52.4522L61.8105 51.6709ZM60.9303 52.5862L61.7591 53.0451L61.7641 53.0375L61.7689 53.0299L60.9303 52.5862ZM60.8463 55.0418L60.0248 55.7123L60.0248 55.7123L60.8463 55.0418ZM62.0334 55.9794L61.4745 56.8669L61.4839 56.8718L61.4935 56.8766L62.0334 55.9794ZM65.822 57.3412L65.3874 58.2825L65.822 57.3412ZM69.532 59.328L68.7849 60.0799L68.7904 60.0851L68.796 60.0902L69.532 59.328ZM70.6292 60.98L69.6789 61.4237L69.6821 61.4319L70.6292 60.98ZM69.8707 66.2931L68.9997 65.9041L69.8707 66.2931ZM64.8539 70.2221L64.6561 69.2809L64.6521 69.2822L64.8539 70.2221ZM58.6692 70.557L58.9878 69.5841L58.9802 69.5826L58.9727 69.5811L58.6692 70.557ZM56.6244 69.9989L56.1476 70.9244L56.1596 70.9292L56.1718 70.9337L56.6244 69.9989ZM54.8693 69.1059L54.2447 69.9548L54.2538 69.9606L54.8693 69.1059ZM53.4797 67.9897L52.6909 67.4732L52.1704 68.1763L52.718 68.7272L53.4797 67.9897ZM54.8351 66.1592L55.6239 66.6757L55.6283 66.6696L54.8351 66.1592ZM55.3947 65.6457L55.8124 66.4907L55.8215 66.4856L55.8304 66.4803L55.3947 65.6457ZM57.0681 65.7573L56.3924 66.5702L56.4135 66.5862L56.4356 66.601L57.0681 65.7573ZM58.0667 66.4047L57.4495 67.2583L57.4558 67.2623L57.4621 67.2662L58.0667 66.4047ZM59.4899 67.0745L59.0345 68.0083L59.0448 68.0121L59.0552 68.0157L59.4899 67.0745ZM63.5343 67.1191L63.715 68.0656L63.7278 68.0618L63.7405 68.0577L63.5343 67.1191ZM65.8206 65.4002L66.6856 65.7997L66.6893 65.7933L66.6929 65.7868L65.8206 65.4002ZM64.7006 61.7837L64.1417 62.6712L64.1509 62.6759L64.7006 61.7837ZM62.923 61.0693L62.5124 62.0185L62.5178 62.0202L62.923 61.0693ZM58.8586 59.5736L58.3298 60.4762L58.3367 60.4795L58.8586 59.5736ZM57.14 58.3904L56.3723 59.1218L56.3817 59.1315L56.3914 59.1409L57.14 58.3904ZM56.0569 56.6268L55.0983 57.0475L55.1009 57.0549L56.0569 56.6268ZM56.7479 51.4923L55.8892 51.0817L55.8852 51.0886L55.8813 51.0955L56.7479 51.4923ZM58.6404 49.3269L58.0758 48.5801L58.0671 48.5871L58.6404 49.3269ZM61.4582 47.8535L61.6689 48.7906L61.677 48.7879L61.4582 47.8535ZM72.1855 50.0412L72.9717 50.5612L73.4697 49.8938L72.9809 49.3397L72.1855 50.0412ZM70.0801 51.2903C70.0419 51.3447 70.0148 51.374 70.0017 51.3867C69.9891 51.3988 69.994 51.3914 70.0178 51.3782L70.8327 53.0798C71.2008 52.8759 71.4807 52.577 71.6927 52.2748L70.0801 51.2903ZM70.0178 51.3782C70.0401 51.3659 70.0524 51.3635 70.0475 51.3647C70.0414 51.3661 70.0173 51.3708 69.9707 51.3708L69.721 53.3551C70.0763 53.3551 70.463 53.2845 70.8327 53.0798L70.0178 51.3782ZM69.9707 51.3708C69.912 51.3708 69.7909 51.3531 69.6003 51.2523L68.4826 53.0271C68.8546 53.224 69.2698 53.3551 69.721 53.3551L69.9707 51.3708ZM69.6328 51.2703C69.3349 51.0958 68.9892 50.909 68.5977 50.71L67.5051 52.4979C67.8749 52.6858 68.1892 52.8562 68.4502 53.0091L69.6328 51.2703ZM68.5977 50.71C68.1527 50.4838 67.6361 50.2933 67.0574 50.1327L66.2946 52.0483C66.7884 52.1853 67.1887 52.3371 67.5051 52.4979L68.5977 50.71ZM67.0876 50.1416C66.4544 49.942 65.7251 49.8527 64.9192 49.8527L64.6695 51.8371C65.3336 51.8371 65.8587 51.9115 66.2644 52.0393L67.0876 50.1416ZM64.9192 49.8527C64.2363 49.8527 63.5787 49.9374 62.9532 50.1186L63.2943 52.0177C63.6963 51.9012 64.1524 51.8371 64.6695 51.8371L64.9192 49.8527ZM62.9732 50.113C62.3643 50.2772 61.7984 50.5317 61.2924 50.8896L62.3284 52.4522C62.58 52.2743 62.8896 52.127 63.2744 52.0233L62.9732 50.113ZM61.2978 50.8858C60.8103 51.2266 60.4038 51.6469 60.0917 52.1425L61.7689 53.0299C61.9067 52.8111 62.0869 52.6212 62.3231 52.456L61.2978 50.8858ZM60.1015 52.1272C59.7822 52.6171 59.5897 53.1475 59.5199 53.7024H61.5199C61.5512 53.4536 61.6322 53.2399 61.7591 53.0451L60.1015 52.1272ZM59.5199 53.7024C59.4248 54.458 59.5778 55.1522 60.0248 55.7123L61.6678 54.3714C61.5447 54.2171 61.4801 54.0183 61.5199 53.7024H59.5199ZM60.0248 55.7123C60.3958 56.1771 60.8892 56.5572 61.4745 56.8669L62.5922 55.092C62.165 54.8659 61.867 54.621 61.6678 54.3714L60.0248 55.7123ZM61.4935 56.8766C62.0504 57.1539 62.681 57.401 63.3807 57.6207L64.2019 55.7223C63.574 55.5252 63.0326 55.311 62.5732 55.0823L61.4935 56.8766ZM63.3807 57.6207C64.036 57.8264 64.7049 58.0469 65.3874 58.2825L66.2567 56.3999C65.5591 56.1592 64.8741 55.9333 64.2019 55.7223L63.3807 57.6207ZM65.3874 58.2825C66.0451 58.5094 66.6841 58.7719 67.3042 59.0698L68.3619 57.2646C67.6808 56.9374 66.979 56.6492 66.2567 56.3999L65.3874 58.2825ZM67.3042 59.0698C67.8792 59.3459 68.3708 59.6834 68.7849 60.0799L70.2792 58.5762C69.7294 58.0499 69.0884 57.6135 68.3619 57.2646L67.3042 59.0698ZM68.796 60.0902C69.1801 60.4448 69.4753 60.8851 69.6789 61.4237L71.5794 60.5363C71.2879 59.7652 70.8516 59.1043 70.2681 58.5658L68.796 60.0902ZM69.6821 61.4319C69.8638 61.898 69.931 62.5152 69.8293 63.324H71.8293C71.9597 62.2874 71.8936 61.3419 71.5763 60.5281L69.6821 61.4319ZM69.8293 63.324C69.7098 64.2734 69.43 65.1295 68.9997 65.9041L70.7417 66.6822C71.3199 65.6411 71.6791 64.5177 71.8293 63.324H69.8293ZM68.9997 65.9041C68.5704 66.6771 68.0025 67.3475 67.2868 67.922L68.4392 69.3969C69.392 68.632 70.1626 67.7249 70.7417 66.6822L68.9997 65.9041ZM67.2868 67.922C66.5844 68.4859 65.7155 68.9445 64.6561 69.2809L65.0517 71.1634C66.3358 70.7557 67.473 70.1725 68.4392 69.3969L67.2868 67.922ZM64.6521 69.2822C63.6241 69.6128 62.4386 69.7881 61.0835 69.7881L60.8338 71.7724C62.3587 71.7724 63.77 71.5756 65.0557 71.1621L64.6521 69.2822ZM61.0835 69.7881C60.3517 69.7881 59.6536 69.7196 58.9878 69.5841L58.3507 71.5299C59.1474 71.692 59.9755 71.7724 60.8338 71.7724L61.0835 69.7881ZM58.9727 69.5811C58.3036 69.4564 57.6721 69.2837 57.0771 69.0641L56.1718 70.9337C56.8669 71.1903 57.5986 71.3898 58.3658 71.5329L58.9727 69.5811ZM57.1013 69.0734C56.5197 68.8392 55.9813 68.5649 55.4848 68.2513L54.2538 69.9606C54.8412 70.3316 55.4729 70.6526 56.1476 70.9244L57.1013 69.0734ZM55.4939 68.2571C55.0118 67.944 54.5955 67.6084 54.2415 67.2523L52.718 68.7272C53.1628 69.1747 53.6729 69.5833 54.2447 69.9548L55.4939 68.2571ZM54.2685 68.5063L55.6239 66.6757L54.0462 65.6426L52.6909 67.4732L54.2685 68.5063ZM55.6283 66.6696C55.7064 66.5628 55.7697 66.515 55.8124 66.4907L54.9769 64.8007C54.5997 65.0146 54.2899 65.3091 54.0418 65.6487L55.6283 66.6696ZM55.8304 66.4803C55.8506 66.4684 55.9128 66.437 56.0601 66.437L56.3098 64.4526C55.8571 64.4526 55.3924 64.5552 54.9589 64.8111L55.8304 66.4803ZM56.0601 66.437C56.1381 66.437 56.2463 66.459 56.3924 66.5702L57.7438 64.9445C57.3423 64.639 56.8618 64.4526 56.3098 64.4526L56.0601 66.437ZM56.4356 66.601C56.7325 66.7986 57.0706 67.0177 57.4495 67.2583L58.6839 65.5512C58.3127 65.3155 57.9851 65.1031 57.7006 64.9137L56.4356 66.601ZM57.4621 67.2662C57.9101 67.5397 58.4374 67.7856 59.0345 68.0083L59.9453 66.1406C59.4249 65.9466 59.0033 65.746 58.6712 65.5433L57.4621 67.2662ZM59.0552 68.0157C59.7447 68.2536 60.5741 68.3568 61.511 68.3568L61.7607 66.3725C60.9577 66.3725 60.3564 66.2822 59.9246 66.1332L59.0552 68.0157ZM61.511 68.3568C62.3033 68.3568 63.043 68.2673 63.715 68.0656L63.3535 66.1726C62.9343 66.2984 62.4085 66.3725 61.7607 66.3725L61.511 68.3568ZM63.7405 68.0577C64.3886 67.8462 64.9805 67.5509 65.4911 67.1534L64.3672 65.656C64.1129 65.8539 63.7749 66.0348 63.328 66.1806L63.7405 68.0577ZM65.4911 67.1534C65.9825 66.771 66.3891 66.3205 66.6856 65.7997L64.9555 65.0006C64.8284 65.2239 64.6407 65.4432 64.3672 65.656L65.4911 67.1534ZM66.6929 65.7868C66.976 65.2741 67.152 64.733 67.2225 64.1723H65.2225C65.1845 64.4748 65.0925 64.7523 64.9482 65.0136L66.6929 65.7868ZM67.2225 64.1723C67.3204 63.3943 67.1846 62.6717 66.7405 62.0881L65.0741 63.3991C65.1964 63.5597 65.2707 63.7895 65.2225 64.1723H67.2225ZM66.7405 62.0881C66.3667 61.597 65.858 61.2037 65.2503 60.8915L64.1509 62.6759C64.5858 62.8994 64.8815 63.146 65.0741 63.3991L66.7405 62.0881ZM65.2594 60.8962C64.6953 60.5977 64.0493 60.3398 63.3281 60.1184L62.5178 62.0202C63.1542 62.2155 63.6933 62.4338 64.1417 62.6711L65.2594 60.8962ZM63.3335 60.1201C62.6782 59.9144 62.0094 59.6938 61.3269 59.4583L60.4576 61.3408C61.1552 61.5816 61.8401 61.8075 62.5124 62.0185L63.3335 60.1201ZM61.3269 59.4583C60.6672 59.2307 60.0184 58.9672 59.3806 58.6677L58.3367 60.4795C59.0302 60.8051 59.7372 61.0922 60.4576 61.3408L61.3269 59.4583ZM59.3875 58.671C58.8156 58.3963 58.3174 58.0524 57.8886 57.64L56.3914 59.1409C56.9528 59.6809 57.6003 60.1258 58.3298 60.4762L59.3875 58.671ZM57.9078 57.659C57.5168 57.2575 57.2178 56.7739 57.0129 56.1987L55.1009 57.0549C55.3837 57.8489 55.8068 58.5411 56.3723 59.1218L57.9078 57.659ZM57.0155 56.2062C56.8303 55.6709 56.7698 54.9744 56.8821 54.0819H54.8821C54.7435 55.1837 54.7995 56.1838 55.0983 57.0475L57.0155 56.2062ZM56.8821 54.0819C56.9794 53.3083 57.2235 52.5804 57.6145 51.8891L55.8813 51.0955C55.3463 52.0413 55.0132 53.0398 54.8821 54.0819H56.8821ZM57.6066 51.9029C58.0082 51.2151 58.5399 50.6041 59.2136 50.0667L58.0671 48.5871C57.1735 49.2998 56.4436 50.1324 55.8892 51.0817L57.6066 51.9029ZM59.2049 50.0736C59.8819 49.5437 60.6973 49.112 61.6689 48.7906L61.2476 46.9164C60.0594 47.3094 58.9961 47.8599 58.0758 48.5802L59.2049 50.0736ZM61.677 48.7879C62.639 48.4615 63.7509 48.2876 65.0261 48.2876L65.2758 46.3032C63.821 46.3032 62.4711 46.5013 61.2395 46.9191L61.677 48.7879ZM65.0261 48.2876C66.4635 48.2876 67.711 48.5158 68.7839 48.9556L69.7476 47.1086C68.4241 46.5661 66.9284 46.3032 65.2758 46.3032L65.0261 48.2876ZM68.7839 48.9556C69.875 49.4028 70.7366 50.0019 71.3901 50.7428L72.9809 49.3397C72.1379 48.384 71.053 47.6437 69.7476 47.1086L68.7839 48.9556ZM71.3993 49.5213L70.1002 51.2625L71.6726 52.3025L72.9717 50.5612L71.3993 49.5213ZM97.2701 47.6526L98.1399 48.0438L98.9121 46.6604H97.395L97.2701 47.6526ZM80.9456 76.897L81.7939 77.3251L81.805 77.3068L81.8154 77.2882L80.9456 76.897ZM80.237 77.7007L79.7033 76.9306L79.6897 76.9406L79.6764 76.9509L80.237 77.7007ZM75.5655 77.9909L74.7095 77.5757L73.8788 78.9831H75.4407L75.5655 77.9909ZM80.9415 68.8827L81.7975 69.2979L82.0363 68.8933L81.9077 68.4851L80.9415 68.8827ZM74.2526 47.6526L74.3775 46.6604H72.8485L73.2864 48.0502L74.2526 47.6526ZM79.3461 47.9428L78.5742 48.6699L78.5981 48.6947L78.6239 48.7176L79.3461 47.9428ZM79.7597 48.5902L78.7874 48.968L78.7893 48.9742L79.7597 48.5902ZM83.6009 61.5158L84.5841 61.1797L84.5783 61.1555L84.5713 61.1318L83.6009 61.5158ZM83.8204 62.632L82.8238 62.8995L82.8275 62.9228L82.8323 62.9457L83.8204 62.632ZM84.0175 63.7482L83.0194 64.0061L83.503 67.3285L84.9366 64.04L84.0175 63.7482ZM85.0662 61.4935L84.1854 61.1225L84.1841 61.125L85.0662 61.4935ZM91.9322 48.5902L92.813 48.9612L92.8189 48.9498L91.9322 48.5902ZM92.5339 47.9205L92.0592 47.1099L92.0464 47.1181L92.0338 47.1267L92.5339 47.9205ZM96.4003 47.2614L80.0759 76.5058L81.8154 77.2882L98.1399 48.0438L96.4003 47.2614ZM80.0974 76.4689C79.9512 76.7094 79.8148 76.8491 79.7033 76.9306L80.7707 78.4707C81.188 78.1653 81.5239 77.7693 81.7939 77.3251L80.0974 76.4689ZM79.6764 76.9509C79.7014 76.9315 79.6975 76.9442 79.6302 76.9621C79.5607 76.9805 79.4441 76.9987 79.2678 76.9987L79.0182 78.9831C79.6003 78.9831 80.2551 78.8714 80.7976 78.4505L79.6764 76.9509ZM79.2678 76.9987H75.6903L75.4407 78.9831H79.0182L79.2678 76.9987ZM76.4215 78.4061L81.7975 69.2979L80.0855 68.4675L74.7095 77.5757L76.4215 78.4061ZM81.9077 68.4851L75.2188 47.2549L73.2864 48.0502L79.9753 69.2803L81.9077 68.4851ZM74.1278 48.6448H78.3353L78.585 46.6604H74.3775L74.1278 48.6448ZM78.3353 48.6448C78.5922 48.6448 78.609 48.7061 78.5742 48.6699L80.118 47.2157C79.7119 46.7925 79.138 46.6604 78.585 46.6604L78.3353 48.6448ZM78.6239 48.7176C78.713 48.796 78.7613 48.8774 78.7875 48.968L80.7319 48.2124C80.6117 47.7969 80.3843 47.4467 80.0683 47.168L78.6239 48.7176ZM78.7893 48.9742L82.6305 61.8997L84.5713 61.1318L80.7301 48.2062L78.7893 48.9742ZM82.6177 61.8519C82.7007 62.2019 82.7693 62.5511 82.8238 62.8995L84.8171 62.3645C84.7552 61.9688 84.6775 61.5738 84.5841 61.1797L82.6177 61.8519ZM82.8323 62.9457C82.9032 63.2834 82.9657 63.6367 83.0194 64.0061L85.0156 63.4902C84.9567 63.0857 84.8878 62.695 84.8086 62.3182L82.8323 62.9457ZM84.9366 64.04C85.1038 63.6564 85.27 63.2805 85.4351 62.9121L83.6064 62.3073C83.4379 62.683 83.2686 63.066 83.0984 63.4564L84.9366 64.04ZM85.4351 62.9121C85.5917 62.5629 85.7627 62.2128 85.9483 61.8619L84.1841 61.125C83.9761 61.5182 83.7834 61.9123 83.6064 62.3073L85.4351 62.9121ZM85.947 61.8644L92.813 48.9611L91.0514 48.2192L84.1854 61.1225L85.947 61.8644ZM92.8189 48.9498C92.865 48.8609 92.9288 48.7858 93.0341 48.7142L92.0338 47.1267C91.6141 47.4123 91.2768 47.7837 91.0454 48.2306L92.8189 48.9498ZM93.0086 48.731C93.1104 48.6655 93.1905 48.6448 93.2753 48.6448L93.525 46.6604C93.0097 46.6604 92.5124 46.8182 92.0592 47.1099L93.0086 48.731ZM93.2753 48.6448H97.1453L97.395 46.6604H93.525L93.2753 48.6448ZM117.362 42.4957L117.487 41.5036H116.487L116.362 42.4957H117.362ZM116.067 52.7871H115.067L114.942 53.7793H115.942L116.067 52.7871ZM128.735 52.7871H129.735L129.86 51.7949H128.86L128.735 52.7871ZM128.204 57.0063L128.079 57.9985H129.079L129.204 57.0063H128.204ZM115.536 57.0063L115.661 56.0142H114.661L114.536 57.0063H115.536ZM113.848 70.4231L113.724 71.4152H114.724L114.848 70.4231H113.848ZM108.561 70.4231H107.561L107.436 71.4152H108.436L108.561 70.4231ZM112.605 38.2765L112.73 37.2843H111.73L111.605 38.2765H112.605ZM132.81 38.2765H133.81L133.935 37.2843H132.935L132.81 38.2765ZM132.28 42.4957L132.155 43.4879H133.155L133.28 42.4957H132.28ZM116.362 42.4957L115.067 52.7871H117.067L118.362 42.4957H116.362ZM115.942 53.7793H128.61L128.86 51.7949H116.192L115.942 53.7793ZM127.735 52.7871L127.204 57.0063H129.204L129.735 52.7871H127.735ZM128.329 56.0142H115.661L115.412 57.9985H128.079L128.329 56.0142ZM114.536 57.0063L112.848 70.4231H114.848L116.536 57.0063H114.536ZM113.973 69.4309H108.686L108.436 71.4152H113.724L113.973 69.4309ZM109.561 70.4231L113.605 38.2765H111.605L107.561 70.4231H109.561ZM112.481 39.2687H132.686L132.935 37.2843H112.73L112.481 39.2687ZM131.81 38.2765L131.28 42.4957H133.28L133.81 38.2765H131.81ZM132.404 41.5036H117.487L117.237 43.4879H132.155L132.404 41.5036ZM140.922 47.6526H141.922L142.047 46.6604H141.047L140.922 47.6526ZM138.057 70.4231L137.932 71.4152H138.932L139.057 70.4231H138.057ZM133.22 70.4231H132.22L132.095 71.4152H133.095L133.22 70.4231ZM136.085 47.6526L136.21 46.6604H135.21L135.085 47.6526H136.085ZM142.173 42.0046L141.317 41.5888L141.309 41.6033L141.301 41.618L142.173 42.0046ZM141.346 43.0315L141.944 43.7508L141.955 43.7421L141.965 43.7331L141.346 43.0315ZM140.202 43.7236L140.476 44.6373L140.485 44.6338L140.494 44.6302L140.202 43.7236ZM137.704 43.7236L137.159 44.618L137.179 44.6282L137.199 44.6373L137.704 43.7236ZM136.801 43.0315L135.99 43.7149L135.998 43.7241L136.006 43.7331L136.801 43.0315ZM136.233 42.0046L135.263 42.3912L135.268 42.4059L135.273 42.4204L136.233 42.0046ZM136.545 39.5266L135.689 39.1109L135.68 39.1254L135.672 39.1401L136.545 39.5266ZM137.369 38.5221L137.987 39.2236L137.998 39.2146L138.008 39.2054L137.369 38.5221ZM138.446 37.83L138.734 38.7382L138.743 38.7346L138.751 38.7309L138.446 37.83ZM140.943 37.83L140.411 38.7309L140.43 38.7403L140.45 38.7489L140.943 37.83ZM141.914 38.5221L141.118 39.2236L141.126 39.2326L141.134 39.2414L141.914 38.5221ZM142.485 39.5266L141.515 39.9132L141.519 39.9279L141.524 39.9424L142.485 39.5266ZM139.922 47.6526L137.057 70.4231H139.057L141.922 47.6526H139.922ZM138.182 69.4309H133.345L133.095 71.4152H137.932L138.182 69.4309ZM134.22 70.4231L137.085 47.6526H135.085L132.22 70.4231H134.22ZM135.96 48.6448H140.797L141.047 46.6604H136.21L135.96 48.6448ZM141.597 40.7768C141.561 41.0667 141.468 41.3339 141.317 41.5888L143.029 42.4204C143.335 41.9014 143.525 41.3501 143.597 40.7768H141.597ZM141.301 41.618C141.152 41.8871 140.963 42.1225 140.727 42.3299L141.965 43.7331C142.405 43.3453 142.766 42.8961 143.045 42.3912L141.301 41.618ZM140.748 42.3122C140.511 42.5116 140.235 42.681 139.91 42.8169L140.494 44.6302C141.023 44.4089 141.51 44.117 141.944 43.7508L140.748 42.3122ZM139.927 42.8098C139.654 42.9186 139.36 42.9769 139.036 42.9769L138.786 44.9613C139.361 44.9613 139.928 44.856 140.476 44.6373L139.927 42.8098ZM139.036 42.9769C138.731 42.9769 138.458 42.9203 138.209 42.8098L137.199 44.6373C137.689 44.8542 138.221 44.9613 138.786 44.9613L139.036 42.9769ZM138.249 42.8291C137.989 42.6974 137.774 42.531 137.597 42.3299L136.006 43.7331C136.327 44.0976 136.714 44.3925 137.159 44.618L138.249 42.8291ZM137.612 42.3482C137.432 42.1321 137.292 41.881 137.193 41.5888L135.273 42.4204C135.436 42.9021 135.675 43.3356 135.99 43.7149L137.612 42.3482ZM137.202 41.618C137.124 41.3568 137.102 41.0793 137.14 40.7768H135.14C135.069 41.3375 135.109 41.8786 135.263 42.3912L137.202 41.618ZM137.14 40.7768C137.18 40.4547 137.275 40.1703 137.417 39.9132L135.672 39.1401C135.387 39.6569 135.212 40.2059 135.14 40.7768H137.14ZM137.4 39.9424C137.57 39.6547 137.767 39.4183 137.987 39.2236L136.75 37.8205C136.329 38.1913 135.976 38.6247 135.689 39.1109L137.4 39.9424ZM138.008 39.2054C138.228 39.0022 138.468 38.8484 138.734 38.7382L138.157 36.9219C137.632 37.1391 137.154 37.4466 136.73 37.8387L138.008 39.2054ZM138.751 38.7309C139.023 38.6132 139.3 38.5543 139.592 38.5543L139.842 36.57C139.264 36.57 138.693 36.6896 138.14 36.9292L138.751 38.7309ZM139.592 38.5543C139.904 38.5543 140.173 38.6153 140.411 38.7309L141.476 36.9292C140.978 36.6875 140.429 36.57 139.842 36.57L139.592 38.5543ZM140.45 38.7489C140.721 38.8643 140.941 39.0224 141.118 39.2236L142.709 37.8205C142.361 37.4264 141.934 37.1232 141.436 36.9112L140.45 38.7489ZM141.134 39.2414C141.309 39.428 141.436 39.6488 141.515 39.9132L143.454 39.1401C143.301 38.6306 143.047 38.1816 142.693 37.8027L141.134 39.2414ZM141.524 39.9424C141.609 40.1928 141.636 40.4669 141.597 40.7768H143.597C143.671 40.1937 143.623 39.6344 143.445 39.1109L141.524 39.9424ZM151.144 50.6663L150.137 50.8227L150.205 52.7788L151.774 51.3573L151.144 50.6663ZM152.845 49.3046L153.357 50.0902L153.36 50.0877L152.845 49.3046ZM154.69 48.233L155.025 49.1204L154.69 48.233ZM156.689 47.541L156.573 46.5772H156.573L156.689 47.541ZM162.154 47.9205L161.634 48.8271L161.639 48.8295L162.154 47.9205ZM164.34 49.6841L163.495 50.3237L163.501 50.3322L164.34 49.6841ZM165.479 52.4299L164.486 52.7199L164.487 52.7236L165.479 52.4299ZM163.71 70.4231L163.586 71.4152H164.586L164.71 70.4231H163.71ZM158.895 70.4231H157.895L157.771 71.4152H158.771L158.895 70.4231ZM160.088 52.3629L159.237 52.9942L159.242 53.002L160.088 52.3629ZM153.9 51.8272L153.54 50.9513L153.534 50.9545L153.9 51.8272ZM151.06 53.8363L150.42 53.154L150.11 53.441L150.06 53.8363H151.06ZM148.973 70.4231L148.848 71.4152H149.848L149.973 70.4231H148.973ZM144.135 70.4231H143.135L143.011 71.4152H144.011L144.135 70.4231ZM147 47.6526L147.125 46.6604H146.125L146 47.6526H147ZM151.07 48.5679L152.077 48.4115L152.075 48.3495L152.065 48.2892L151.07 48.5679ZM151.774 51.3573C152.298 50.8829 152.826 50.461 153.357 50.0901L152.333 48.519C151.713 48.9517 151.107 49.4377 150.513 49.9753L151.774 51.3573ZM153.36 50.0877C153.897 49.7103 154.452 49.3883 155.025 49.1204L154.354 47.3456C153.653 47.673 152.978 48.0653 152.33 48.5214L153.36 50.0877ZM155.025 49.1204C155.589 48.8571 156.182 48.6515 156.806 48.5048L156.573 46.5772C155.806 46.7578 155.065 47.0136 154.354 47.3456L155.025 49.1204ZM156.806 48.5048C157.411 48.3624 158.074 48.2876 158.801 48.2876L159.05 46.3032C158.186 46.3032 157.359 46.3921 156.573 46.5772L156.806 48.5048ZM158.801 48.2876C159.95 48.2876 160.886 48.4777 161.634 48.8271L162.674 47.0138C161.638 46.5298 160.42 46.3032 159.05 46.3032L158.801 48.2876ZM161.639 48.8295C162.42 49.1882 163.033 49.6864 163.495 50.3236L165.185 49.0445C164.547 48.1637 163.703 47.4862 162.669 47.0115L161.639 48.8295ZM163.501 50.3322C163.979 50.9752 164.313 51.7646 164.486 52.7198L166.472 52.14C166.256 50.9522 165.829 49.911 165.179 49.0359L163.501 50.3322ZM164.487 52.7236C164.664 53.6716 164.684 54.7392 164.533 55.9348H166.533C166.705 54.5706 166.689 53.3016 166.471 52.1363L164.487 52.7236ZM164.533 55.9348L162.71 70.4231H164.71L166.533 55.9348H164.533ZM163.835 69.4309H159.02L158.771 71.4152H163.586L163.835 69.4309ZM159.895 70.4231L161.718 55.9348H159.718L157.895 70.4231H159.895ZM161.718 55.9348C161.929 54.2569 161.718 52.809 160.933 51.7238L159.242 53.002C159.685 53.6135 159.893 54.5468 159.718 55.9348H161.718ZM160.939 51.7317C160.132 50.5879 158.786 50.0983 157.133 50.0983L156.883 52.0827C158.14 52.0827 158.847 52.4414 159.237 52.9942L160.939 51.7317ZM157.133 50.0983C155.893 50.0983 154.691 50.3818 153.541 50.9513L154.26 52.703C155.093 52.2902 155.963 52.0827 156.883 52.0827L157.133 50.0983ZM153.534 50.9545C152.446 51.5017 151.408 52.2394 150.42 53.154L151.7 54.5187C152.545 53.7366 153.401 53.1349 154.266 52.6998L153.534 50.9545ZM150.06 53.8363L147.973 70.4231H149.973L152.06 53.8363H150.06ZM149.098 69.4309H144.26L144.011 71.4152H148.848L149.098 69.4309ZM145.135 70.4231L148 47.6526H146L143.135 70.4231H145.135ZM146.876 48.6448H149.801L150.05 46.6604H147.125L146.876 48.6448ZM149.801 48.6448C149.889 48.6448 149.944 48.655 149.974 48.664C150.003 48.6725 150.013 48.6804 150.015 48.682C150.017 48.6833 150.024 48.6889 150.034 48.7084C150.046 48.7297 150.063 48.772 150.075 48.8466L152.065 48.2892C151.986 47.8241 151.785 47.3898 151.398 47.0809C151.014 46.7739 150.535 46.6604 150.05 46.6604L149.801 48.6448ZM150.063 48.7242L150.137 50.8227L152.151 50.51L152.077 48.4115L150.063 48.7242ZM182.875 60.4666H183.875L184.005 59.4393L182.965 59.475L182.875 60.4666ZM178.457 60.8907L178.508 61.8677L178.521 61.8655L178.457 60.8907ZM175.473 61.7167L175.769 62.6218L175.777 62.6184L175.785 62.6149L175.473 61.7167ZM173.727 62.8999L172.983 62.3257L172.976 62.3345L172.969 62.3434L173.727 62.8999ZM173.136 65.802L172.167 66.1886L172.173 66.2102L172.181 66.2313L173.136 65.802ZM173.739 66.7396L172.996 67.4956L173.014 67.5127L173.033 67.5288L173.739 66.7396ZM174.751 67.2754L174.347 68.2267L174.367 68.2327L174.387 68.2379L174.751 67.2754ZM179.431 66.7396L179.779 67.6211L179.785 67.6182L179.431 66.7396ZM182.344 64.6858L182.983 65.3692L183.295 65.0819L183.344 64.6858H182.344ZM171.264 50.8226L170.674 50.0963L170.033 50.6261L170.329 51.3055L171.264 50.8226ZM184.414 47.8758L183.907 48.7885L183.915 48.7919L183.923 48.7952L184.414 47.8758ZM186.777 49.6617L185.945 50.3192L185.952 50.327L186.777 49.6617ZM188.026 52.4299L187.038 52.7437L187.04 52.7516L187.042 52.7594L188.026 52.4299ZM186.325 70.4231L186.2 71.4152H187.2L187.325 70.4231H186.325ZM183.133 70.2221L182.497 71.0635L182.515 71.0757L182.534 71.0869L183.133 70.2221ZM182.635 69.3515L181.635 69.5949L181.642 69.6501L181.656 69.7034L182.635 69.3515ZM182.396 67.4986L183.396 67.2553L183.19 65.6637L181.821 66.7602L182.396 67.4986ZM180.486 68.905L180.964 69.7138L180.971 69.7089L180.979 69.7038L180.486 68.905ZM178.579 69.9319L178.272 69.0317L178.263 69.0357L178.579 69.9319ZM176.543 70.557L176.478 69.5825L176.465 69.5849L176.453 69.5875L176.543 70.557ZM171.658 70.4007L171.234 71.3455L171.239 71.3471L171.658 70.4007ZM169.731 69.2622L168.97 70.0006L168.975 70.0054L168.98 70.0101L169.731 69.2622ZM168.578 67.3423L167.61 67.7353L167.612 67.7428L167.615 67.7502L168.578 67.3423ZM169.44 62.0962L168.634 61.6039L168.626 61.6157L169.44 62.0962ZM172.061 59.8638L172.476 60.7104L172.48 60.7084L172.061 59.8638ZM176.566 58.2118L176.451 57.2479L176.449 57.2483L176.566 58.2118ZM183.252 57.4751L183.15 58.4671L184.13 58.4448L184.252 57.4751H183.252ZM182.846 52.296L182.01 52.9474L182.846 52.296ZM177.508 51.4477L177.726 52.382L177.737 52.3785L177.747 52.3748L177.508 51.4477ZM175.772 52.1844L175.378 51.3263L175.772 52.1844ZM174.439 52.9434L174.863 53.7847L174.877 53.777L174.89 53.7689L174.439 52.9434ZM172.426 53.0327L171.703 53.8074L171.729 53.8299L171.756 53.8503L172.426 53.0327ZM171.945 52.3853L171.01 52.8682L171.015 52.8783L171.019 52.8883L171.945 52.3853ZM182.965 59.475C181.201 59.5356 179.674 59.6802 178.393 59.916L178.521 61.8655C179.666 61.6547 181.084 61.5166 182.785 61.4581L182.965 59.475ZM178.405 59.9138C177.144 60.1308 176.053 60.426 175.161 60.8185L175.785 62.6149C176.449 62.3228 177.348 62.0674 178.508 61.8677L178.405 59.9138ZM175.177 60.8116C174.297 61.183 173.533 61.6725 172.983 62.3257L174.47 63.4741C174.697 63.2045 175.097 62.9052 175.769 62.6218L175.177 60.8116ZM172.969 62.3434C172.465 62.9669 172.158 63.6663 172.063 64.4179H174.063C174.107 64.0682 174.243 63.7555 174.485 63.4563L172.969 62.3434ZM172.063 64.4179C171.983 65.0514 172.005 65.6507 172.167 66.1886L174.106 65.4154C174.035 65.1794 174.008 64.856 174.063 64.4179H172.063ZM172.181 66.2313C172.356 66.7215 172.627 67.1475 172.996 67.4956L174.481 65.9836C174.314 65.8257 174.183 65.6266 174.092 65.3726L172.181 66.2313ZM173.033 67.5288C173.411 67.8446 173.853 68.0757 174.347 68.2267L175.155 66.3241C174.869 66.2369 174.636 66.1108 174.444 65.9504L173.033 67.5288ZM174.387 68.2379C174.881 68.3644 175.414 68.4238 175.979 68.4238L176.229 66.4395C175.804 66.4395 175.435 66.3948 175.115 66.3128L174.387 68.2379ZM175.979 68.4238C177.361 68.4238 178.638 68.1708 179.779 67.6211L179.083 65.8581C178.308 66.2311 177.367 66.4395 176.229 66.4395L175.979 68.4238ZM179.785 67.6182C180.882 67.0825 181.947 66.3255 182.983 65.3692L181.705 64.0024C180.807 64.832 179.93 65.4442 179.077 65.861L179.785 67.6182ZM183.344 64.6858L183.875 60.4666H181.875L181.344 64.6858H183.344ZM171.854 51.5489C174.541 49.3258 177.526 48.2206 180.861 48.2206L181.111 46.2362C177.276 46.2362 173.779 47.5272 170.674 50.0963L171.854 51.5489ZM180.861 48.2206C182.071 48.2206 183.079 48.4183 183.907 48.7885L184.922 46.9632C183.818 46.4701 182.54 46.2362 181.111 46.2362L180.861 48.2206ZM183.923 48.7952C184.78 49.1586 185.447 49.6682 185.946 50.3191L187.609 49.0043C186.922 48.1075 186.014 47.4265 184.906 46.9565L183.923 48.7952ZM185.952 50.327C186.473 50.991 186.838 51.7913 187.038 52.7437L189.015 52.1162C188.764 50.9254 188.297 49.8803 187.603 48.9964L185.952 50.327ZM187.042 52.7594C187.256 53.6952 187.296 54.7574 187.145 55.9571H189.145C189.32 54.5673 189.281 53.278 189.011 52.1004L187.042 52.7594ZM187.145 55.9571L185.325 70.4231H187.325L189.145 55.9571H187.145ZM186.45 69.4309H184.29L184.04 71.4152H186.2L186.45 69.4309ZM184.29 69.4309C184.103 69.4309 183.966 69.4172 183.869 69.3984C183.821 69.3891 183.787 69.3793 183.764 69.3712C183.753 69.3672 183.745 69.3638 183.74 69.3613C183.734 69.3588 183.732 69.3574 183.732 69.3574L182.534 71.0869C182.961 71.3435 183.508 71.4152 184.04 71.4152L184.29 69.4309ZM183.769 69.3808C183.788 69.3937 183.771 69.3898 183.736 69.3281C183.7 69.2658 183.656 69.1618 183.614 68.9996L181.656 69.7034C181.788 70.218 182.026 70.7467 182.497 71.0635L183.769 69.3808ZM183.635 69.1081L183.396 67.2553L181.395 67.742L181.635 69.5949L183.635 69.1081ZM181.821 66.7602C181.194 67.2621 180.585 67.7104 179.993 68.1063L180.979 69.7038C181.632 69.2662 182.296 68.7769 182.971 68.237L181.821 66.7602ZM180.009 68.0962C179.441 68.4639 178.862 68.7753 178.272 69.0317L178.887 70.8321C179.598 70.523 180.29 70.1498 180.964 69.7138L180.009 68.0962ZM178.263 69.0357C177.715 69.2796 177.121 69.4632 176.478 69.5825L176.609 71.5315C177.409 71.383 178.173 71.1498 178.896 70.8281L178.263 69.0357ZM176.453 69.5875C175.828 69.7187 175.127 69.7881 174.345 69.7881L174.095 71.7724C174.994 71.7724 175.841 71.6929 176.634 71.5265L176.453 69.5875ZM174.345 69.7881C173.507 69.7881 172.754 69.6743 172.077 69.4543L171.239 71.3471C172.118 71.6332 173.073 71.7724 174.095 71.7724L174.345 69.7881ZM172.082 69.456C171.434 69.241 170.906 68.9251 170.482 68.5143L168.98 70.0101C169.599 70.6113 170.356 71.0544 171.234 71.3455L172.082 69.456ZM170.492 68.5238C170.07 68.1012 169.752 67.5763 169.541 66.9345L167.615 67.7502C167.903 68.6264 168.353 69.3814 168.97 70.0006L170.492 68.5238ZM169.545 66.9494C169.357 66.3406 169.304 65.587 169.42 64.6635H167.42C167.278 65.7938 167.329 66.826 167.61 67.7353L169.545 66.9494ZM169.42 64.6635C169.507 63.9676 169.777 63.2759 170.255 62.5767L168.626 61.6157C167.964 62.5834 167.553 63.6032 167.42 64.6635H169.42ZM170.247 62.5885C170.703 61.9382 171.422 61.3041 172.476 60.7104L171.646 59.0172C170.375 59.7332 169.347 60.5873 168.634 61.6039L170.247 62.5885ZM172.48 60.7084C173.533 60.1102 174.924 59.5917 176.684 59.1753L176.449 57.2483C174.56 57.6952 172.948 58.2779 171.643 59.0192L172.48 60.7084ZM176.682 59.1758C178.426 58.7666 180.577 58.5256 183.15 58.4671L183.353 56.4832C180.691 56.5438 178.386 56.7939 176.451 57.2479L176.682 59.1758ZM184.252 57.4751L184.443 55.9571H182.443L182.252 57.4751H184.252ZM184.443 55.9571C184.663 54.2038 184.478 52.7041 183.682 51.6446L182.01 52.9474C182.421 53.4952 182.634 54.4362 182.443 55.9571H184.443ZM183.682 51.6446C182.873 50.5685 181.587 50.0983 180.017 50.0983L179.768 52.0827C180.928 52.0827 181.61 52.4162 182.01 52.9474L183.682 51.6446ZM180.017 50.0983C179.009 50.0983 178.083 50.2265 177.268 50.5205L177.747 52.3748C178.252 52.1926 178.916 52.0827 179.768 52.0827L180.017 50.0983ZM177.289 50.5133C176.584 50.7522 175.945 51.0217 175.378 51.3263L176.167 53.0424C176.597 52.8112 177.114 52.5896 177.726 52.382L177.289 50.5133ZM175.378 51.3263C174.865 51.6022 174.401 51.866 173.988 52.1178L174.89 53.7689C175.258 53.5445 175.683 53.3023 176.167 53.0424L175.378 51.3263ZM174.015 52.102C173.79 52.2317 173.583 52.2861 173.375 52.2861L173.125 54.2704C173.727 54.2704 174.313 54.1015 174.863 53.7847L174.015 52.102ZM173.375 52.2861C173.219 52.2861 173.142 52.2503 173.095 52.2151L171.756 53.8503C172.148 54.1424 172.62 54.2704 173.125 54.2704L173.375 52.2861ZM173.148 52.2579C173.033 52.1568 172.941 52.0339 172.87 51.8822L171.019 52.8883C171.185 53.2426 171.413 53.5513 171.703 53.8074L173.148 52.2579ZM172.879 51.9024L172.198 50.3397L170.329 51.3055L171.01 52.8682L172.879 51.9024ZM199 50.6663L197.993 50.8227L198.061 52.7788L199.631 51.3573L199 50.6663ZM200.701 49.3046L201.213 50.0902L201.217 50.0877L200.701 49.3046ZM202.546 48.233L202.882 49.1204L202.546 48.233ZM204.546 47.541L204.43 46.5772H204.43L204.546 47.541ZM210.011 47.9205L209.49 48.8271L209.495 48.8295L210.011 47.9205ZM212.196 49.6841L211.351 50.3237L211.358 50.3322L212.196 49.6841ZM213.336 52.4299L212.343 52.7199L212.344 52.7236L213.336 52.4299ZM211.567 70.4231L211.442 71.4152H212.442L212.567 70.4231H211.567ZM206.752 70.4231H205.752L205.627 71.4152H206.627L206.752 70.4231ZM207.944 52.3629L207.093 52.9942L207.099 53.002L207.944 52.3629ZM201.757 51.8272L201.397 50.9513L201.391 50.9545L201.757 51.8272ZM198.916 53.8363L198.276 53.154L197.966 53.441L197.916 53.8363H198.916ZM196.829 70.4231L196.705 71.4152H197.705L197.829 70.4231H196.829ZM191.992 70.4231H190.992L190.867 71.4152H191.867L191.992 70.4231ZM194.857 47.6526L194.982 46.6604H193.982L193.857 47.6526H194.857ZM198.927 48.5679L199.934 48.4115L199.932 48.3495L199.921 48.2892L198.927 48.5679ZM199.631 51.3573C200.155 50.8829 200.682 50.461 201.213 50.0901L200.19 48.519C199.57 48.9517 198.963 49.4377 198.37 49.9753L199.631 51.3573ZM201.217 50.0877C201.753 49.7103 202.308 49.3883 202.882 49.1204L202.211 47.3456C201.509 47.673 200.834 48.0653 200.186 48.5214L201.217 50.0877ZM202.882 49.1204C203.446 48.8571 204.039 48.6515 204.662 48.5048L204.43 46.5772C203.662 46.7578 202.922 47.0136 202.211 47.3456L202.882 49.1204ZM204.662 48.5048C205.267 48.3624 205.931 48.2876 206.657 48.2876L206.907 46.3032C206.043 46.3032 205.216 46.3921 204.43 46.5772L204.662 48.5048ZM206.657 48.2876C207.807 48.2876 208.742 48.4777 209.49 48.8271L210.531 47.0138C209.494 46.5298 208.277 46.3032 206.907 46.3032L206.657 48.2876ZM209.495 48.8295C210.277 49.1882 210.89 49.6864 211.351 50.3236L213.041 49.0445C212.404 48.1637 211.56 47.4862 210.526 47.0115L209.495 48.8295ZM211.358 50.3322C211.836 50.9752 212.169 51.7646 212.343 52.7198L214.329 52.14C214.112 50.9522 213.686 49.911 213.035 49.0359L211.358 50.3322ZM212.344 52.7236C212.52 53.6716 212.54 54.7392 212.39 55.9348H214.39C214.561 54.5706 214.545 53.3016 214.328 52.1363L212.344 52.7236ZM212.39 55.9348L210.567 70.4231H212.567L214.39 55.9348H212.39ZM211.692 69.4309H206.877L206.627 71.4152H211.442L211.692 69.4309ZM207.752 70.4231L209.575 55.9348H207.575L205.752 70.4231H207.752ZM209.575 55.9348C209.786 54.2569 209.574 52.809 208.79 51.7238L207.099 53.002C207.541 53.6135 207.749 54.5468 207.575 55.9348H209.575ZM208.795 51.7317C207.988 50.5879 206.643 50.0983 204.989 50.0983L204.739 52.0827C205.996 52.0827 206.703 52.4414 207.093 52.9942L208.795 51.7317ZM204.989 50.0983C203.75 50.0983 202.547 50.3818 201.397 50.9513L202.116 52.703C202.95 52.2902 203.819 52.0827 204.739 52.0827L204.989 50.0983ZM201.391 50.9545C200.302 51.5017 199.265 52.2394 198.276 53.154L199.556 54.5187C200.402 53.7366 201.257 53.1349 202.123 52.6998L201.391 50.9545ZM197.916 53.8363L195.829 70.4231H197.829L199.916 53.8363H197.916ZM196.954 69.4309H192.117L191.867 71.4152H196.705L196.954 69.4309ZM192.992 70.4231L195.857 47.6526H193.857L190.992 70.4231H192.992ZM194.732 48.6448H197.657L197.907 46.6604H194.982L194.732 48.6448ZM197.657 48.6448C197.745 48.6448 197.8 48.655 197.831 48.664C197.86 48.6725 197.87 48.6804 197.872 48.682C197.873 48.6833 197.88 48.6889 197.891 48.7084C197.902 48.7297 197.919 48.772 197.932 48.8466L199.921 48.2892C199.843 47.8241 199.641 47.3898 199.255 47.0809C198.871 46.7739 198.392 46.6604 197.907 46.6604L197.657 48.6448ZM197.92 48.7242L197.993 50.8227L200.007 50.51L199.934 48.4115L197.92 48.7242ZM235.742 52.1174L236.459 52.7223L236.467 52.7126L236.476 52.7028L235.742 52.1174ZM235.259 52.5639L235.774 53.347L235.774 53.347L235.259 52.5639ZM233.878 52.4522L233.219 53.2778L233.228 53.2846L233.238 53.2911L233.878 52.4522ZM232.961 51.8718L232.339 52.7226L232.357 52.7345L232.377 52.7454L232.961 51.8718ZM231.664 51.2691L231.229 52.2103L231.664 51.2691ZM226.835 51.5593L226.521 50.6619L226.514 50.6651L226.835 51.5593ZM224.653 53.1666L223.935 52.5633L223.932 52.5658L224.653 53.1666ZM223.143 55.6892L222.209 55.4318L222.206 55.4417L223.143 55.6892ZM223.237 64.9537L222.366 65.5545L222.373 65.5652L223.237 64.9537ZM224.976 66.5164L224.43 67.4109L224.437 67.4141L224.976 66.5164ZM231.343 65.9806L230.876 65.1648L231.343 65.9806ZM232.426 65.2439L231.904 64.4651L231.893 64.4733L231.881 64.4817L232.426 65.2439ZM234.212 65.3555L233.321 65.9245L233.332 65.9435L233.344 65.9619L234.212 65.3555ZM235.362 67.1191L236.055 67.7492L236.638 67.1385L236.23 66.5127L235.362 67.1191ZM233.304 68.8157L232.839 67.9987L233.304 68.8157ZM231.023 69.9543L231.262 70.8817L231.27 70.8787L231.278 70.8755L231.023 69.9543ZM228.607 70.557L228.584 69.5755L228.575 69.5769L228.566 69.5783L228.607 70.557ZM222.223 69.9766L221.706 70.8851L221.713 70.888L221.719 70.8908L222.223 69.9766ZM219.272 67.6772L218.444 68.3397L218.449 68.3455L218.453 68.3511L219.272 67.6772ZM217.553 63.9937L216.569 64.3275L216.572 64.339L217.553 63.9937ZM218.699 54.3498L219.608 54.6635L219.609 54.6606L218.699 54.3498ZM221.26 50.6217L220.595 49.9638L220.588 49.9698L221.26 50.6217ZM225.009 48.1884L225.288 49.1004L225.297 49.0967L225.009 48.1884ZM234.133 48.0991L233.624 49.011L233.628 49.0127L234.133 48.0991ZM237.244 50.3761L237.978 50.9615L238.569 50.2754L238.039 49.6745L237.244 50.3761ZM235.026 51.5124C234.888 51.6657 234.793 51.7453 234.743 51.7807L235.774 53.347C236.02 53.1741 236.248 52.956 236.459 52.7223L235.026 51.5124ZM234.743 51.7807C234.803 51.7384 234.848 51.7252 234.857 51.723C234.861 51.722 234.857 51.7233 234.843 51.7249C234.83 51.7264 234.808 51.728 234.779 51.728L234.529 53.7123C234.902 53.7123 235.359 53.6389 235.774 53.347L234.743 51.7807ZM234.779 51.728C234.765 51.728 234.679 51.7233 234.517 51.6134L233.238 53.2911C233.601 53.5383 234.033 53.7123 234.529 53.7123L234.779 51.728ZM234.536 51.6267C234.258 51.4259 233.926 51.2164 233.545 50.9982L232.377 52.7454C232.723 52.9439 233.002 53.1214 233.219 53.2778L234.536 51.6267ZM233.582 51.021C233.163 50.7513 232.664 50.5228 232.099 50.3278L231.229 52.2103C231.699 52.3725 232.064 52.5458 232.339 52.7226L233.582 51.021ZM232.099 50.3278C231.452 50.1045 230.673 50.009 229.797 50.009L229.548 51.9934C230.292 51.9934 230.841 52.0764 231.229 52.2103L232.099 50.3278ZM229.797 50.009C228.628 50.009 227.529 50.2164 226.521 50.6619L227.149 52.4566C227.824 52.158 228.617 51.9934 229.548 51.9934L229.797 50.009ZM226.514 50.6651C225.533 51.1065 224.671 51.7434 223.935 52.5633L225.371 53.7699C225.891 53.1908 226.483 52.7562 227.156 52.4535L226.514 50.6651ZM223.932 52.5658C223.214 53.3712 222.645 54.3347 222.209 55.4318L224.076 55.9466C224.432 55.0495 224.87 54.3313 225.373 53.7674L223.932 52.5658ZM222.206 55.4417C221.79 56.5201 221.506 57.7142 221.342 59.0155H223.342C223.489 57.8463 223.739 56.8228 224.08 55.9367L222.206 55.4417ZM221.342 59.0155C221.172 60.3664 221.167 61.5988 221.343 62.7018L223.336 62.1604C223.193 61.2691 223.19 60.2244 223.342 59.0155H221.342ZM221.343 62.7018C221.518 63.7944 221.852 64.7532 222.366 65.5545L224.109 64.3529C223.745 63.785 223.48 63.062 223.336 62.1604L221.343 62.7018ZM222.373 65.5652C222.902 66.3633 223.588 66.9841 224.43 67.4108L225.521 65.6219C224.953 65.3342 224.48 64.9132 224.102 64.3422L222.373 65.5652ZM224.437 67.4141C225.296 67.8404 226.274 68.0443 227.348 68.0443L227.598 66.06C226.783 66.06 226.095 65.9066 225.514 65.6186L224.437 67.4141ZM227.348 68.0443C228.347 68.0443 229.254 67.926 230.03 67.6433L229.545 65.7912C229.096 65.955 228.459 66.06 227.598 66.06L227.348 68.0443ZM230.03 67.6433C230.698 67.4002 231.296 67.1209 231.81 66.7963L230.876 65.1648C230.542 65.3761 230.104 65.5878 229.545 65.7912L230.03 67.6433ZM231.81 66.7963C232.251 66.517 232.64 66.2534 232.97 66.0061L231.881 64.4817C231.615 64.6808 231.282 64.9084 230.876 65.1648L231.81 66.7963ZM232.947 66.0226C233.098 65.9155 233.186 65.9012 233.243 65.9012L233.493 63.9169C232.919 63.9169 232.38 64.1258 231.904 64.4651L232.947 66.0226ZM233.243 65.9012C233.276 65.9012 233.296 65.9044 233.305 65.9065C233.314 65.9084 233.315 65.9097 233.312 65.9081C233.311 65.9074 233.31 65.9065 233.308 65.9055C233.307 65.9046 233.306 65.904 233.307 65.9041C233.307 65.9042 233.312 65.9095 233.321 65.9245L235.102 64.7865C234.765 64.2039 234.184 63.9169 233.493 63.9169L233.243 65.9012ZM233.344 65.9619L234.494 67.7255L236.23 66.5127L235.079 64.7491L233.344 65.9619ZM234.669 66.489C234.094 67.0919 233.484 67.5932 232.839 67.9987L233.768 69.6328C234.59 69.1156 235.352 68.4857 236.055 67.7492L234.669 66.489ZM232.839 67.9987C232.172 68.4188 231.481 68.7632 230.768 69.033L231.278 70.8755C232.139 70.55 232.97 70.1354 233.768 69.6328L232.839 67.9987ZM230.784 69.0268C230.071 69.2836 229.338 69.4667 228.584 69.5755L228.63 71.5385C229.526 71.4091 230.404 71.1904 231.262 70.8817L230.784 69.0268ZM228.566 69.5783C227.795 69.7032 227.024 69.7657 226.254 69.7657L226.005 71.7501C226.884 71.7501 227.766 71.6787 228.648 71.5357L228.566 69.5783ZM226.254 69.7657C224.955 69.7657 223.783 69.529 222.726 69.0624L221.719 70.8908C223.021 71.4659 224.454 71.7501 226.005 71.7501L226.254 69.7657ZM222.739 69.0681C221.698 68.5882 220.816 67.9025 220.091 67.0033L218.453 68.3511C219.337 69.4462 220.423 70.2934 221.706 70.8851L222.739 69.0681ZM220.1 67.0147C219.393 66.1069 218.867 64.9907 218.534 63.6485L216.572 64.339C216.956 65.8841 217.575 67.2234 218.444 68.3397L220.1 67.0147ZM218.537 63.66C218.225 62.3277 218.169 60.7843 218.392 59.0155H216.392C216.146 60.9673 216.198 62.7428 216.569 64.3275L218.537 63.66ZM218.392 59.0155C218.592 57.4281 219 55.98 219.608 54.6635L217.79 54.036C217.078 55.577 216.615 57.2394 216.392 59.0155H218.392ZM219.609 54.6606C220.219 53.3298 220.996 52.2061 221.932 51.2735L220.588 49.9698C219.433 51.1208 218.502 52.4825 217.788 54.0389L219.609 54.6606ZM221.926 51.2795C222.869 50.3538 223.985 49.6265 225.288 49.1003L224.73 47.2764C223.157 47.9111 221.774 48.806 220.595 49.9638L221.926 51.2795ZM225.297 49.0967C226.58 48.5665 228.048 48.2876 229.722 48.2876L229.971 46.3032C228.075 46.3032 226.318 46.6196 224.721 47.2801L225.297 49.0967ZM229.722 48.2876C231.28 48.2876 232.572 48.5382 233.624 49.011L234.641 47.1871C233.309 46.5883 231.743 46.3032 229.971 46.3032L229.722 48.2876ZM233.628 49.0127C234.722 49.4981 235.661 50.1847 236.448 51.0777L238.039 49.6745C237.094 48.603 235.959 47.7716 234.638 47.1854L233.628 49.0127ZM236.51 49.7907L235.008 51.532L236.476 52.7028L237.978 50.9615L236.51 49.7907ZM255.25 56.4706L255.125 57.4627H256.125L256.25 56.4706H255.25ZM255.171 54.2382L254.18 54.5398L254.183 54.552L254.185 54.5641L255.171 54.2382ZM254.386 52.4299L253.545 53.0756L253.549 53.081L253.554 53.0864L254.386 52.4299ZM252.85 51.2244L252.323 52.1277L252.334 52.1332L252.346 52.1385L252.85 51.2244ZM246.283 52.2736L246.902 52.9752L246.283 52.2736ZM243.843 56.4706L242.872 56.3246L242.558 57.4627H243.718L243.843 56.4706ZM243.337 59.4173L243.462 58.4252H242.415L242.332 59.4629L243.337 59.4173ZM243.52 62.7883L242.537 63.1238L242.538 63.1285L243.52 62.7883ZM244.598 65.1323L243.772 65.798L243.78 65.8074L244.598 65.1323ZM246.491 66.5387L246.006 67.4611L246.016 67.4652L246.026 67.4691L246.491 66.5387ZM251.626 66.6726L251.798 67.6218L251.808 67.619L251.818 67.6159L251.626 66.6726ZM253.516 65.9583L253.852 66.8457L253.863 66.8405L253.874 66.8351L253.516 65.9583ZM254.911 65.2439L255.307 66.1009L255.321 66.0933L255.335 66.0853L254.911 65.2439ZM256.787 65.3555L255.896 65.9245L255.907 65.9435L255.919 65.9619L256.787 65.3555ZM257.938 67.1191L258.621 67.7592L259.219 67.147L258.806 66.5127L257.938 67.1191ZM255.789 68.8157L256.227 69.6492L255.789 68.8157ZM253.351 69.9543L253.565 70.8902L253.573 70.8875L253.581 70.8847L253.351 69.9543ZM250.778 70.557L250.762 69.5745L250.754 69.5756L250.745 69.577L250.778 70.557ZM243.921 69.9766L243.433 70.8979L243.445 70.9026L243.921 69.9766ZM240.683 67.6326L239.874 68.3184L239.879 68.3237L240.683 67.6326ZM238.823 63.8152L237.841 64.1535L237.843 64.1615L238.823 63.8152ZM239.95 54.1489L239.055 53.8049L239.051 53.8139L239.95 54.1489ZM242.559 50.577L241.91 49.9027L241.904 49.9085L242.559 50.577ZM246.28 48.1884L246.567 49.0971L246.572 49.095L246.28 48.1884ZM254.787 47.9874L254.31 48.9126L254.319 48.9164L254.787 47.9874ZM257.642 49.9743L258.443 49.2787L257.642 49.9743ZM259.26 53.2113L258.279 53.5573L258.283 53.5703L259.26 53.2113ZM259.022 59.0378L258.25 58.4988L258.25 58.4988L259.022 59.0378ZM256.25 56.4706C256.364 55.5679 256.336 54.7124 256.156 53.9122L254.185 54.5641C254.313 55.1332 254.339 55.7659 254.25 56.4706H256.25ZM256.162 53.9365C256.001 53.1177 255.69 52.3913 255.218 51.7735L253.554 53.0864C253.854 53.4805 254.067 53.9596 254.18 54.5398L256.162 53.9365ZM255.226 51.7842C254.751 51.1397 254.12 50.6493 253.354 50.3104L252.346 52.1385C252.859 52.3651 253.252 52.6784 253.545 53.0756L255.226 51.7842ZM253.378 50.3212C252.61 49.9544 251.721 49.7858 250.736 49.7858L250.486 51.7701C251.242 51.7701 251.845 51.8991 252.323 52.1277L253.378 50.3212ZM250.736 49.7858C248.782 49.7858 247.053 50.3472 245.664 51.5721L246.902 52.9752C247.774 52.2059 248.931 51.7701 250.486 51.7701L250.736 49.7858ZM245.664 51.5721C244.319 52.7583 243.409 54.3748 242.872 56.3246L244.813 56.6166C245.269 54.9647 245.986 53.7833 246.902 52.9752L245.664 51.5721ZM243.718 57.4627H255.125L255.375 55.4784H243.967L243.718 57.4627ZM242.332 59.4629C242.223 60.8304 242.285 62.0562 242.537 63.1238L244.503 62.4527C244.306 61.6154 244.244 60.5939 244.342 59.3718L242.332 59.4629ZM242.538 63.1285C242.789 64.1645 243.194 65.0623 243.772 65.7979L245.423 64.4666C245.019 63.9521 244.706 63.2872 244.502 62.448L242.538 63.1285ZM243.78 65.8074C244.374 66.5402 245.118 67.0938 246.006 67.4611L246.975 65.6163C246.352 65.3585 245.835 64.9745 245.416 64.4571L243.78 65.8074ZM246.026 67.4691C246.919 67.8131 247.918 67.9773 249.01 67.9773L249.259 65.993C248.371 65.993 247.607 65.8596 246.955 65.6083L246.026 67.4691ZM249.01 67.9773C250.025 67.9773 250.959 67.8659 251.798 67.6218L251.455 65.7234C250.861 65.896 250.135 65.993 249.259 65.993L249.01 67.9773ZM251.818 67.6159C252.572 67.3813 253.252 67.1256 253.852 66.8457L253.181 65.0708C252.697 65.2969 252.117 65.5174 251.435 65.7293L251.818 67.6159ZM253.874 66.8351C254.426 66.5631 254.905 66.3182 255.307 66.1009L254.515 64.3869C254.145 64.5863 253.694 64.8176 253.159 65.0814L253.874 66.8351ZM255.335 66.0853C255.62 65.9216 255.768 65.9012 255.819 65.9012L256.068 63.9169C255.518 63.9169 254.979 64.1197 254.487 64.4025L255.335 66.0853ZM255.819 65.9012C255.852 65.9012 255.872 65.9044 255.881 65.9065C255.89 65.9084 255.891 65.9097 255.888 65.9081C255.887 65.9074 255.885 65.9065 255.884 65.9055C255.883 65.9046 255.882 65.904 255.882 65.9041C255.882 65.9042 255.888 65.9095 255.896 65.9245L257.678 64.7865C257.34 64.2039 256.759 63.9169 256.068 63.9169L255.819 65.9012ZM255.919 65.9619L257.07 67.7255L258.806 66.5127L257.655 64.7491L255.919 65.9619ZM257.254 66.479C256.671 67.0761 256.037 67.5758 255.352 67.9823L256.227 69.6492C257.098 69.133 257.896 68.5016 258.621 67.7592L257.254 66.479ZM255.352 67.9823C254.64 68.404 253.897 68.7511 253.121 69.0238L253.581 70.8847C254.5 70.5621 255.382 70.1502 256.227 69.6492L255.352 67.9823ZM253.137 69.0183C252.357 69.2791 251.566 69.4645 250.762 69.5745L250.793 71.5396C251.73 71.4114 252.654 71.1949 253.565 70.8902L253.137 69.0183ZM250.745 69.577C249.922 69.7034 249.134 69.7657 248.38 69.7657L248.13 71.7501C248.996 71.7501 249.89 71.6785 250.81 71.537L250.745 69.577ZM248.38 69.7657C246.902 69.7657 245.578 69.524 244.396 69.0505L243.445 70.9026C244.863 71.4709 246.428 71.7501 248.13 71.7501L248.38 69.7657ZM244.408 69.0554C243.248 68.5709 242.277 67.8675 241.488 66.9414L239.879 68.3237C240.841 69.4514 242.028 70.3107 243.433 70.8978L244.408 69.0554ZM241.492 66.9467C240.724 66.0301 240.156 64.878 239.804 63.4688L237.843 64.1615C238.249 65.7884 238.921 67.1812 239.874 68.3184L241.492 66.9467ZM239.806 63.4768C239.473 62.0886 239.413 60.4582 239.651 58.569H237.651C237.391 60.6386 237.446 62.5056 237.841 64.1535L239.806 63.4768ZM239.651 58.569C239.836 57.096 240.238 55.7368 240.849 54.4839L239.051 53.8139C238.327 55.2993 237.863 56.8869 237.651 58.569H239.651ZM240.844 54.4928C241.471 53.2355 242.262 52.157 243.214 51.2455L241.904 49.9085C240.742 51.0211 239.793 52.3238 239.055 53.8049L240.844 54.4928ZM243.208 51.2513C244.169 50.3441 245.285 49.6255 246.567 49.0971L245.993 47.2796C244.458 47.912 243.094 48.7859 241.91 49.9027L243.208 51.2513ZM246.572 49.095C247.843 48.5638 249.259 48.2876 250.835 48.2876L251.084 46.3032C249.27 46.3032 247.566 46.6223 245.988 47.2817L246.572 49.095ZM250.835 48.2876C252.133 48.2876 253.287 48.4996 254.31 48.9126L255.265 47.0623C254.003 46.5526 252.606 46.3032 251.084 46.3032L250.835 48.2876ZM254.319 48.9164C255.338 49.3139 256.174 49.8982 256.842 50.6698L258.443 49.2787C257.591 48.2942 256.525 47.5539 255.255 47.0584L254.319 48.9164ZM256.842 50.6698C257.506 51.438 257.989 52.3939 258.279 53.5573L260.241 52.8653C259.893 51.4688 259.298 50.2667 258.443 49.2787L256.842 50.6698ZM258.283 53.5703C258.583 54.7009 258.649 56.0193 258.458 57.5421H260.458C260.674 55.8205 260.609 54.2517 260.238 52.8522L258.283 53.5703ZM258.458 57.5421C258.415 57.883 258.364 58.1357 258.312 58.3134C258.256 58.507 258.219 58.5392 258.25 58.4988L259.794 59.5768C260.022 59.2834 260.156 58.9398 260.245 58.6349C260.339 58.314 260.407 57.9454 260.458 57.5421H258.458ZM258.25 58.4988C258.267 58.4771 258.289 58.4556 258.313 58.4376C258.337 58.42 258.355 58.4118 258.361 58.4093C258.366 58.4072 258.358 58.4114 258.33 58.416C258.303 58.4207 258.26 58.4252 258.199 58.4252L257.949 60.4095C258.565 60.4095 259.291 60.2233 259.794 59.5768L258.25 58.4988ZM258.199 58.4252H243.462L243.212 60.4095H257.949L258.199 58.4252Z" fill="white" fill-opacity="0.13"/>
<ellipse rx="2.16757" ry="2.48635" transform="matrix(0.799097 -0.601202 -0.607844 -0.794056 232.139 53.9256)" fill="#4361EE"/>
<ellipse rx="1.48421" ry="3.78553" transform="matrix(0.99494 -0.100471 -0.102208 -0.994763 223.89 61.4148)" fill="#4361EE"/>
<rect width="12.0343" height="5.75324" transform="matrix(0.728725 -0.684806 0.691081 0.722777 222.457 59.6035)" fill="#4361EE"/>
<g filter="url(#filter1_i_3_60)">
<path d="M231.175 53.7179L232.518 57.4869L236.877 57.4914L233.348 59.8163L234.691 63.5854L231.167 61.2532L227.638 63.5781L228.989 59.8118L225.465 57.4796L229.824 57.4842L231.175 53.7179Z" fill="#FFC300"/>
</g>
<defs>
<filter id="filter0_f_3_60" x="9.60107" y="12.4221" width="235.927" height="90.1559" filterUnits="userSpaceOnUse" color-interpolation-filters="sRGB">
<feFlood flood-opacity="0" result="BackgroundImageFix"/>
<feBlend mode="normal" in="SourceGraphic" in2="BackgroundImageFix" result="shape"/>
<feGaussianBlur stdDeviation="0.5" result="effect1_foregroundBlur_3_60"/>
</filter>
<filter id="filter1_i_3_60" x="225.465" y="53.7179" width="11.4127" height="13.8675" filterUnits="userSpaceOnUse" color-interpolation-filters="sRGB">
<feFlood flood-opacity="0" result="BackgroundImageFix"/>
<feBlend mode="normal" in="SourceGraphic" in2="BackgroundImageFix" result="shape"/>
<feColorMatrix in="SourceAlpha" type="matrix" values="0 0 0 0 0 0 0 0 0 0 0 0 0 0 0 0 0 0 127 0" result="hardAlpha"/>
<feOffset dy="4"/>
<feGaussianBlur stdDeviation="2"/>
<feComposite in2="hardAlpha" operator="arithmetic" k2="-1" k3="1"/>
<feColorMatrix type="matrix" values="0 0 0 0 0.925 0 0 0 0 0.845219 0 0 0 0 0.127187 0 0 0 0.53 0"/>
<feBlend mode="normal" in2="shape" result="effect1_innerShadow_3_60"/>
</filter>
</defs>
</svg>
